<svg width="1536" height="1536" viewBox="0 0 1536 1536" fill="none" xmlns="http://www.w3.org/2000/svg">
<path fill-rule="evenodd" clip-rule="evenodd" d="M587.586 0H724.02L725.52 46.4546H812.478V0H945.914L947.413 46.4546H1035.87V91.4107H1080.85V172.332H1130.33V223.282H1176.8V358.15H1221.78V677.339H1176.8V768.749H1128.83V855.664H1085.35L1083.85 900.62L1037.37 899.122L1035.87 945.577H951.911V987.536H1085.35V1032.49H1176.8L1178.3 1080.44L1265.26 1078.95L1266.76 1123.9L1311.74 1126.9V1171.86H1355.22L1353.72 1536H179.781V1171.86H221.761L223.26 1123.9H268.239V1078.95L358.196 1080.44V1032.49H451.151L452.65 986.037H586.086V945.577H497.629L496.13 900.62H448.153V857.163L401.675 854.166V768.749H358.196V677.339H316.216V358.15H358.196V223.282H401.675L403.174 172.332L451.151 170.833V91.4107H496.13V46.4546H586.086L587.586 0ZM858.956 176.827H812.478V404.605H1128.83L1130.33 361.147H1085.35L1083.85 314.693H996.89V361.147L903.934 359.649V265.241H996.89V175.329H948.913L947.413 131.871L903.934 133.37V91.4107H858.956V176.827ZM587.586 176.827H538.109V265.241L632.564 266.74V359.649H539.609V314.693H455.649L457.148 359.649H409.171V404.605L724.02 403.106V176.827H674.544L673.045 131.871H589.085L587.586 176.827ZM409.171 675.84H452.65V764.254H497.629V810.708L541.108 812.207V855.664H589.085V899.122L677.543 900.62V1035.49L631.065 1036.99V1081.94L497.629 1080.44L494.63 1128.4H361.194V1171.86H314.717V1216.81H269.738V1444.59L401.675 1446.09V1353.18H499.128V1446.09H1038.87V1353.18H1130.33V1446.09H1265.26V1216.81L1221.78 1215.31V1171.86H1175.3V1128.4H1040.37L1038.87 1081.94H903.934V1035.49H854.458V899.122H950.412V855.664H996.89L998.389 812.207H1038.87V765.752L1085.35 764.254L1086.85 675.84L1130.33 674.341V497.514L409.171 496.016V675.84Z" fill="#F73029"/>
</svg>
