<svg width="1637" height="1978" viewBox="0 0 1637 1978" fill="none" xmlns="http://www.w3.org/2000/svg">
<path fill-rule="evenodd" clip-rule="evenodd" d="M545.959 221.223C547.88 221.608 555.05 221.864 562.093 221.864C569.135 221.864 576.946 221.864 579.379 221.736C581.811 221.736 608.957 221.864 639.559 221.992C670.161 222.12 728.677 222.248 769.523 222.12C810.369 221.992 844.685 221.864 845.709 221.992C846.734 221.992 902.048 221.992 968.631 222.12C1035.21 222.12 1091.04 222.12 1092.83 222.12C1094.63 222.12 1099.75 222.12 1104.36 221.992C1108.97 221.992 1115.88 221.992 1119.72 221.992C1123.56 222.12 1134.83 222.12 1144.69 222.12C1154.55 222.12 1163.77 222.12 1165.18 222.12C1166.59 221.992 1183.87 221.864 1203.59 221.864C1226.13 221.736 1241.49 222.12 1244.95 223.016C1247.89 223.785 1252.12 225.962 1254.3 228.011C1256.6 229.932 1259.42 233.646 1260.7 236.336C1263 240.946 1263.13 251.704 1263.13 570.218C1263.13 784.993 1262.75 901.41 1261.85 905.124C1261.21 908.326 1259.29 912.68 1257.75 914.729C1256.09 916.906 1252.25 919.98 1243.28 924.335L834.826 924.591L834.057 1006.3L851.727 987.986C862.995 976.46 870.294 969.8 871.958 969.8C873.495 969.8 878.488 974.026 884.506 980.302C890.14 986.449 894.366 992.084 894.366 993.493C894.366 995.03 886.555 1003.99 875.031 1015.91C864.404 1026.79 847.374 1044.59 818.18 1075.07L813.058 1074.31C808.321 1073.67 804.863 1070.59 770.548 1036.14C734.952 1000.41 733.031 998.36 733.031 993.877C733.031 989.523 733.927 988.114 742.634 980.046C748.524 974.539 753.39 971.081 755.182 971.081C757.231 970.953 762.993 976.332 775.926 989.779C787.193 1001.69 794.492 1008.35 795.516 1007.84C796.669 1007.2 797.053 997.463 797.053 965.958C797.053 943.417 796.669 924.975 796.156 924.975C795.516 924.975 730.086 924.719 650.443 924.463C570.928 924.078 478.352 923.694 383.728 923.054L378.734 919.084C376.045 917.035 372.844 913.192 371.692 910.759C369.643 906.661 369.387 886.297 369.387 573.163C369.387 288.717 369.643 239.281 371.18 236.336C372.204 234.287 374.637 231.213 376.686 229.42C378.606 227.499 381.679 225.322 383.472 224.425C386.033 223.016 403.447 222.632 463.755 222.632C506.138 222.504 541.222 221.992 541.734 221.48C542.246 220.967 544.167 220.839 545.959 221.223V221.223ZM409.081 311.514L409.721 358.26C543.654 358.644 634.437 358.9 697.819 358.9C761.201 359.028 901.536 358.9 1009.61 358.9C1117.67 358.772 1210.38 358.26 1215.5 357.875L1224.72 356.979L1224.08 263.487C593.207 263.487 409.721 263.743 409.337 264.127C408.824 264.511 408.696 285.771 409.081 311.514V311.514ZM408.568 638.736C408.44 770.521 408.824 879.638 409.337 881.431L410.233 884.633C708.575 884.376 795.516 884.248 796.028 884.12C796.669 884.12 797.053 871.313 797.053 855.817V827.641L580.019 827.769C572.592 822.774 569.519 819.316 568.367 817.139C566.446 813.297 566.318 795.751 566.19 635.534C566.062 508.359 566.446 457.387 567.471 455.594C568.239 454.185 570.672 451.367 572.976 449.19C576.946 445.348 576.946 445.348 593.848 445.092C603.195 444.964 709.215 444.836 829.704 444.708C1040.85 444.452 1048.79 444.452 1053.65 446.757C1056.47 448.166 1060.18 451.111 1061.97 453.545L1065.3 457.899C1065.82 728.129 1065.69 808.43 1065.3 810.735C1064.92 812.913 1062.74 816.883 1060.44 819.444C1058.26 822.006 1054.55 824.951 1052.5 826.104C1049.17 827.769 1034.7 828.025 941.742 828.153L834.826 828.281L834.185 884.633C1135.34 884.633 1223.57 884.248 1224.33 883.736C1225.61 882.968 1225.87 836.094 1225.61 655.129C1225.49 529.875 1225.23 420.502 1224.97 412.05L1224.59 396.681C547.24 396.681 409.849 397.065 409.337 397.962C408.953 398.73 408.568 507.078 408.568 638.736V638.736ZM603.707 483.129C604.603 699.954 604.859 768.984 604.859 776.412L604.987 789.86L1025.61 789.604C1026.89 748.109 1027.02 679.334 1026.76 609.92C1026.51 540.505 1026.12 483.641 1025.87 483.385C1025.74 483.257 939.437 482.873 834.185 482.745C728.934 482.617 633.925 482.617 623.17 482.873L603.707 483.129ZM630.596 966.598L636.358 972.361L636.998 1096.59H656.589C667.345 1096.72 748.396 1096.85 836.746 1097.1C925.224 1097.23 998.849 1096.85 1000.39 1096.33C1001.92 1095.69 1003.2 1094.41 1003.2 1093.39C1003.2 1092.24 1004.61 1087.5 1006.28 1082.76C1007.94 1078.02 1011.4 1069.82 1013.83 1064.57C1016.26 1059.19 1020.49 1051.51 1023.18 1047.28C1025.87 1043.06 1030.09 1036.91 1032.52 1033.84C1034.96 1030.63 1040.72 1023.72 1045.33 1018.6C1050.07 1013.34 1059.03 1005.28 1065.3 1000.41C1071.71 995.67 1084.13 988.242 1092.83 983.888C1103.59 978.509 1113.58 974.667 1122.92 972.233C1130.73 970.312 1142.26 968.007 1148.53 967.11C1155.7 966.214 1167.74 965.83 1179.9 966.214C1194.12 966.726 1202.95 967.751 1210.63 969.672C1216.65 971.209 1225.61 973.898 1230.48 975.691C1235.47 977.484 1244.44 981.326 1250.33 984.272C1256.35 987.218 1264.8 991.828 1268.89 994.518C1273.12 997.335 1281.44 1003.61 1287.33 1008.61C1293.22 1013.73 1301.54 1022.05 1305.9 1027.3C1310.25 1032.55 1315.25 1038.96 1317.04 1041.39C1318.83 1043.95 1322.54 1049.72 1325.23 1054.33C1327.92 1058.81 1332.28 1067.77 1334.96 1074.18C1337.65 1080.45 1341.49 1091.72 1343.41 1099.15C1346.74 1111.57 1347 1114.26 1347 1138.85C1347 1164.34 1347 1165.49 1342.9 1180.48C1340.73 1188.93 1336.5 1201.22 1333.56 1208.01C1330.61 1214.67 1326.13 1223.89 1323.44 1228.5C1320.75 1232.99 1314.86 1241.44 1310.38 1247.07C1305.9 1252.71 1297.7 1261.8 1292.07 1267.31C1286.44 1272.82 1277.09 1280.5 1271.45 1284.21C1265.95 1287.93 1256.09 1293.56 1249.69 1296.77C1243.41 1299.84 1233.04 1304.19 1226.64 1306.24C1220.36 1308.42 1211.15 1310.85 1206.15 1311.62C1201.29 1312.39 1196.16 1313.54 1194.63 1314.18C1192.2 1315.21 1192.07 1316.62 1191.68 1403.45C1191.43 1487.59 1191.17 1491.82 1188.87 1497.07C1187.33 1500.4 1184.77 1503.34 1182.21 1504.75C1178.49 1506.8 1172.99 1507.06 1129.33 1507.32C1102.69 1507.44 1052.63 1507.57 955.827 1507.7L959.028 1513.08C960.821 1516.02 964.406 1524.86 967.223 1532.67C970.04 1540.36 973.241 1552.14 974.521 1558.93C975.802 1566.61 976.698 1578.52 976.826 1591.59C976.826 1605.29 976.186 1616.18 974.777 1624.88C973.497 1631.93 971.704 1640.77 970.552 1644.74C969.399 1648.58 964.79 1659.21 960.308 1668.43C955.187 1678.8 949.425 1688.41 944.815 1694.04C940.718 1699.04 935.34 1705.44 932.779 1708.13C930.346 1710.95 924.328 1716.46 919.334 1720.43C914.469 1724.27 905.506 1730.54 899.488 1734.13C893.598 1737.72 883.738 1742.71 877.72 1745.27C871.83 1747.96 861.459 1751.42 854.672 1753.21C844.941 1755.77 838.539 1756.41 822.021 1756.8C805.504 1757.31 798.845 1756.93 787.449 1754.75C779.767 1753.34 767.987 1750.39 761.201 1748.22C754.542 1746.04 745.579 1742.58 741.354 1740.4C737.128 1738.23 728.293 1732.72 721.507 1728.11C714.849 1723.5 704.221 1714.53 697.819 1708.13C691.417 1701.73 682.838 1691.35 678.74 1685.08C674.515 1678.67 669.265 1669.45 667.088 1664.59C664.784 1659.59 661.455 1651.01 659.662 1645.38C657.741 1639.61 655.436 1629.11 654.412 1621.94C653.26 1614.77 652.363 1602.73 652.363 1595.43C652.363 1588 653.004 1577.5 653.772 1571.99C654.54 1566.48 656.845 1555.98 658.766 1548.68C660.814 1541.25 664.656 1530.62 667.217 1524.99C669.777 1519.23 672.978 1513.08 674.259 1511.16C675.667 1509.24 676.692 1507.44 676.692 1507.32C676.692 1507.19 627.395 1507.06 566.958 1507.06C459.402 1507.06 457.097 1506.93 453 1504.5C450.823 1503.09 448.006 1500.01 446.981 1497.71C445.189 1494.12 444.933 1480.42 444.933 1389.49C444.933 1332.24 444.549 1279.86 443.012 1260.52L398.837 1260.65C374.637 1260.65 349.796 1260.78 343.778 1260.78C337.888 1260.78 326.364 1260.65 318.17 1260.65C310.103 1260.52 301.652 1259.88 299.347 1259.11C296.658 1258.34 294.353 1256.42 292.945 1253.73C290.896 1249.89 290.64 1240.29 290 979.405L292.945 974.923C294.61 972.361 297.939 969.416 300.372 968.135C304.469 965.958 314.328 965.83 630.596 966.598V966.598ZM328.029 1115.16C328.285 1173.56 328.541 1221.59 328.797 1221.72C328.925 1221.84 372.076 1221.97 424.574 1221.97C476.944 1222.1 537.636 1222.1 559.276 1222.1H598.713L598.073 1006.3C357.863 1005.66 329.822 1005.92 328.797 1007.2C328.029 1008.22 327.773 1048.95 328.029 1115.16V1115.16ZM637.254 1183.04C637.638 1208.4 637.51 1233.37 637.126 1238.75C636.614 1246.18 635.718 1249.51 633.285 1253.22C631.492 1255.78 628.291 1258.47 626.243 1259.24C623.81 1260.01 595.256 1260.65 552.617 1260.78L482.834 1261.16C482.578 1358.37 482.834 1405.24 482.962 1427.91L483.474 1469.28L709.471 1469.02C719.33 1460.57 724.836 1456.34 728.037 1454.17C731.11 1452.12 738.409 1448.02 744.043 1445.07C749.677 1442.25 758.896 1438.54 764.53 1436.75C770.164 1434.95 778.999 1432.78 784.376 1431.88C789.626 1430.98 802.046 1430.22 811.906 1430.34C823.046 1430.34 834.057 1431.11 841.356 1432.39C847.63 1433.55 858.258 1436.36 865.044 1438.54C871.702 1440.72 883.482 1445.58 891.293 1449.43C898.975 1453.27 908.835 1459.16 913.06 1462.75L920.743 1469.15L1152.5 1468.64V1314.95C1136.62 1312.26 1126.25 1309.7 1119.21 1307.27C1112.17 1304.96 1102.18 1300.99 1097.06 1298.43C1091.94 1295.87 1084.77 1291.77 1081.05 1289.47C1077.34 1287.03 1070.04 1281.65 1064.79 1277.43C1059.41 1273.2 1050.45 1264.62 1044.82 1258.34C1039.06 1252.07 1031.63 1242.98 1028.3 1238.11C1024.84 1233.11 1019.08 1222.74 1015.37 1215.06C1011.65 1207.24 1006.79 1194.82 1004.61 1187.52C1002.56 1180.09 999.874 1167.67 998.849 1159.99C997.825 1152.17 997.057 1144.36 997.057 1142.7C997.185 1140.9 997.057 1138.73 997.057 1137.83C996.929 1136.55 965.558 1136.16 845.453 1136.16C762.225 1136.04 681.685 1135.91 666.704 1135.78C651.723 1135.65 638.791 1135.91 638.023 1136.29C637.126 1136.8 636.87 1150.89 637.254 1183.04V1183.04ZM618.56 1537.16C619.2 1537.16 623.682 1541 628.419 1545.74C634.437 1551.76 636.998 1555.34 636.998 1557.65C636.998 1559.95 632.389 1565.46 599.353 1598.63L618.176 1617.46C629.828 1629.11 636.998 1637.31 637.126 1638.97C637.126 1640.38 633.029 1645.5 627.523 1651.14C618.176 1660.49 617.92 1660.62 615.103 1658.57C613.438 1657.54 599.994 1644.35 585.269 1629.37C570.416 1614.51 557.867 1601.45 557.355 1600.42C556.843 1599.4 556.843 1597.73 557.355 1596.84C557.867 1595.81 569.903 1582.75 584.244 1567.76C598.457 1552.78 611.646 1539.72 613.694 1538.82C615.615 1537.92 617.792 1537.16 618.56 1537.16V1537.16ZM1014.85 1537.16C1015.11 1537.16 1028.3 1549.96 1043.92 1565.59C1066.07 1587.74 1072.47 1594.79 1072.35 1597.35C1072.35 1599.78 1065.56 1607.34 1043.28 1629.62C1027.28 1645.63 1013.32 1658.82 1012.29 1658.82C1011.14 1658.82 1006.15 1654.6 1001.03 1649.47C995.904 1644.35 991.807 1639.36 991.807 1638.33C991.679 1637.18 1000.13 1627.96 1010.37 1617.84C1020.49 1607.59 1028.94 1598.76 1028.94 1598.25C1028.94 1597.73 1020.74 1589.02 1010.89 1579.03C1000 1567.89 992.959 1559.82 992.959 1558.29C992.959 1556.75 996.545 1552.01 1001.28 1547.4C1005.89 1542.79 1010.63 1538.56 1011.91 1538.18C1013.19 1537.67 1014.47 1537.28 1014.85 1537.16V1537.16Z" fill="#FF5A47" fill-opacity="0.98"/>
<path d="M1119.72 1012.32C1123.56 1010.65 1132.78 1007.96 1140.21 1006.3C1152.25 1003.61 1156.09 1003.23 1176.06 1003.61C1189.76 1003.99 1201.67 1004.89 1206.79 1006.04C1211.4 1007.07 1219.98 1009.89 1226 1012.19C1232.02 1014.5 1242.64 1020.39 1249.69 1025C1256.98 1029.87 1266.72 1037.93 1272.22 1043.7C1277.47 1049.2 1284.26 1057.14 1287.08 1061.37C1289.89 1065.6 1294.25 1073.03 1296.68 1078.02C1299.24 1083.01 1302.7 1091.34 1304.49 1096.59C1306.28 1101.84 1308.46 1109.91 1309.1 1114.52C1309.87 1119.13 1310.51 1128.61 1310.51 1135.65C1310.51 1142.7 1309.87 1153.33 1309.23 1159.35C1308.59 1165.36 1306.28 1175.74 1304.1 1182.4C1301.93 1189.06 1297.96 1198.54 1295.4 1203.53C1292.84 1208.52 1289.12 1214.8 1287.2 1217.62C1285.28 1220.44 1281.31 1225.81 1278.24 1229.4C1275.17 1233.11 1267.87 1240.16 1261.85 1245.15C1255.83 1250.02 1246.1 1256.55 1240.08 1259.75C1234.07 1262.83 1225.23 1266.93 1220.24 1268.85C1215.24 1270.77 1205.64 1273.33 1198.85 1274.74C1191.3 1276.15 1180.93 1277.17 1172.86 1277.17C1164.79 1277.17 1154.17 1276.15 1146.36 1274.61C1139.06 1273.33 1129.2 1270.51 1124.2 1268.46C1119.21 1266.54 1110.38 1262.19 1104.36 1258.98C1098.34 1255.78 1089.12 1249.38 1083.87 1244.9C1078.62 1240.29 1071.96 1233.75 1069.02 1230.3C1066.2 1226.84 1060.95 1219.67 1057.36 1214.42C1053.78 1209.16 1048.91 1199.94 1046.35 1193.92C1043.79 1187.91 1040.46 1177.92 1038.93 1171.51C1036.49 1162.03 1035.98 1156.4 1035.98 1140.13C1036.11 1122.72 1036.49 1118.49 1039.57 1106.2C1041.62 1098.51 1045.2 1087.75 1047.63 1082.5C1050.07 1077.25 1053.78 1070.08 1056.08 1066.49C1058.26 1063.04 1062.87 1056.63 1066.2 1052.41C1069.53 1048.18 1075.93 1041.52 1080.28 1037.55C1084.77 1033.58 1090.14 1029.48 1092.19 1028.46C1094.24 1027.3 1096.93 1025.51 1097.95 1024.23C1098.98 1022.95 1102.69 1020.52 1106.28 1018.72C1109.73 1016.93 1115.88 1013.98 1119.72 1012.32Z" fill="#FFFAF3"/>
<path d="M775.285 1474.27C781.943 1472.1 791.418 1469.79 796.412 1469.15C801.406 1468.64 812.289 1468.38 820.74 1468.77C829.959 1469.02 839.691 1470.17 845.069 1471.71C850.062 1472.99 858.001 1475.68 862.995 1477.47C867.988 1479.4 875.159 1482.73 879 1484.9C882.841 1487.08 889.5 1491.69 893.725 1494.89C897.951 1498.22 905.377 1505.27 910.371 1510.52C915.365 1515.77 921.511 1523.84 924.2 1528.32C926.76 1532.8 930.346 1539.97 932.01 1544.2C933.675 1548.43 936.108 1556.24 937.26 1561.49C938.412 1566.74 939.565 1578.27 939.821 1587.1C940.077 1595.94 939.693 1607.21 939.053 1612.08C938.412 1616.94 937.004 1624.24 935.852 1628.09C934.699 1631.93 933.163 1636.79 932.522 1638.97C931.754 1641.15 928.681 1647.94 925.48 1654.34C922.407 1660.74 916.389 1670.09 911.907 1675.47C907.426 1680.72 899.615 1688.41 894.365 1692.38C889.116 1696.48 880.409 1702.24 875.159 1705.18C869.909 1708.26 860.05 1712.48 853.391 1714.79C846.733 1716.97 839.179 1719.14 836.746 1719.53C834.313 1719.79 827.911 1720.55 822.661 1720.94C817.027 1721.45 807.936 1721.19 800.894 1720.3C794.235 1719.4 784.376 1717.35 779.126 1715.69C773.876 1714.02 766.066 1711.2 761.84 1709.41C757.615 1707.49 749.292 1702.75 743.402 1698.78C737.512 1694.68 728.805 1687.38 724.195 1682.52C719.586 1677.52 713.44 1670.09 710.623 1665.87C707.934 1661.64 703.196 1652.68 700.123 1646.02C697.178 1639.36 694.617 1632.7 694.617 1631.29C694.617 1629.88 693.721 1626.16 692.569 1622.96C691.032 1618.61 690.52 1612.08 690.52 1596.71C690.392 1582.88 691.032 1573.27 692.313 1567.25C693.465 1562.39 696.154 1553.68 698.331 1548.04C700.635 1542.41 704.861 1533.83 707.806 1528.83C710.751 1523.96 716.641 1515.9 720.866 1510.9C725.092 1506.03 733.159 1498.35 738.792 1494C744.426 1489.51 752.237 1484.26 756.078 1482.21C759.92 1480.16 768.627 1476.58 775.285 1474.27Z" fill="#FFFAF3"/>
<path d="M512.666 309.721C512.41 294.224 512.538 293.712 515.483 291.663C518.044 289.87 520.861 289.614 533.281 290.382C541.348 290.766 548.518 291.663 549.286 292.431C550.055 293.2 550.567 300.884 550.567 310.233C550.567 322.016 550.055 327.267 548.902 328.419C547.75 329.572 542.5 330.212 532.641 330.468C519.324 330.725 517.66 330.468 515.355 328.163C513.05 325.858 512.794 323.809 512.666 309.721Z" fill="#FF5A47" fill-opacity="0.98"/>
<path d="M449.925 311.386C449.925 302.165 450.437 294.993 451.205 293.456C452.486 291.279 454.278 291.022 468.363 291.022C479.247 291.022 484.496 291.407 485.649 292.559C486.801 293.712 487.185 299.091 487.185 310.489C487.185 325.986 487.057 327.01 484.24 328.803C482.192 330.212 477.838 330.725 467.595 330.725C457.095 330.725 453.382 330.212 451.973 328.803C450.437 327.267 450.053 323.296 449.925 311.386Z" fill="#FF5A47" fill-opacity="0.98"/>
<path d="M576.688 310.489C576.688 301.908 577.2 294.993 577.968 293.456C579.249 291.279 581.041 291.022 594.486 291.022C607.034 290.894 609.723 291.279 611.388 293.072C612.924 294.865 613.308 298.579 613.052 310.745C612.796 325.217 612.54 326.37 609.851 328.675C607.29 330.725 605.113 330.981 593.718 330.596C582.194 330.084 580.145 329.7 578.608 327.523C577.328 325.73 576.688 320.863 576.688 310.489Z" fill="#FF5A47" fill-opacity="0.98"/>
<path d="M798.587 517.965C800.252 515.916 802.429 515.019 806.91 514.763C810.367 514.635 815.873 514.507 819.458 514.635C822.916 514.763 827.141 515.403 828.678 516.3C830.598 517.196 831.879 519.245 832.263 521.807C832.519 524.112 833.799 538.456 834.824 553.569C835.976 568.681 837.129 581.872 837.385 582.641C837.769 583.537 839.561 584.306 841.482 584.306C843.531 584.178 846.092 585.202 847.372 586.483C848.78 587.892 849.933 591.862 851.469 604.669L866.835 605.437L868.115 618.244L887.962 619.013C898.846 619.525 909.089 620.166 910.625 620.678C912.29 621.062 914.211 622.855 914.851 624.648C915.491 626.441 916.131 632.845 916.131 638.992C916.131 645.268 915.619 651.031 915.107 651.799C914.595 652.696 912.162 653.976 909.729 654.745C907.296 655.385 897.053 656.026 886.937 656.026C871.956 656.026 868.627 656.41 868.115 657.947C867.731 658.971 867.475 661.917 867.475 664.35C867.475 667.552 866.707 669.217 864.914 670.113C863.505 670.754 859.92 671.522 851.469 672.163L850.573 679.078C850.061 682.92 848.908 686.891 848.012 687.787C847.116 688.684 844.299 689.836 841.866 690.349C837.897 691.245 837.257 691.885 836.488 696.368C835.976 699.186 834.952 712.377 834.184 725.824C833.159 742.217 832.007 751.054 830.854 752.975C829.19 755.793 828.165 755.921 814.977 755.921C801.788 755.921 800.764 755.793 798.971 752.975C797.691 751.182 796.667 743.882 795.77 731.588C795.13 721.342 793.978 708.151 793.21 702.131C792.569 696.112 791.929 691.245 791.929 691.245C791.929 691.245 789.624 690.477 786.807 689.58C782.71 688.299 781.43 687.275 780.533 683.817C779.765 681.64 779.125 678.31 778.869 676.517C778.484 673.699 777.588 673.059 770.802 671.778C766.576 670.882 762.991 669.985 762.863 669.857C762.607 669.601 762.095 666.399 760.558 656.026H740.071C722.401 656.026 719.328 655.641 717.28 653.72C715.359 651.927 714.975 649.366 715.103 638.096C715.103 627.209 715.615 624.264 717.408 622.343C719.2 620.422 721.761 620.037 733.669 620.166C741.352 620.166 750.827 619.653 754.54 619.141C759.278 618.501 761.199 617.732 761.199 616.323C761.199 615.299 761.839 612.225 763.76 604.797H778.485L781.045 586.227L792.569 583.409L793.466 572.011C793.85 565.735 794.746 551.647 795.258 540.761C796.155 524.752 796.795 520.398 798.587 517.965Z" fill="#FF5A47" fill-opacity="0.98"/>
<path d="M1156.73 1077.38C1156.6 1038.19 1156.85 1034.09 1158.9 1031.4C1160.95 1028.58 1161.72 1028.46 1172.73 1028.97C1179.13 1029.23 1185.15 1029.87 1185.92 1030.38C1187.2 1031.02 1187.46 1041.52 1186.94 1123.1L1191.04 1127.07C1193.35 1129.38 1195.39 1132.45 1195.52 1133.99C1195.78 1135.78 1198.85 1138.98 1203.85 1142.57C1208.2 1145.77 1221.52 1155.89 1233.3 1164.85C1245.08 1173.95 1254.93 1182.14 1255.06 1183.17C1255.32 1184.19 1254.68 1186.5 1253.65 1188.55C1252.76 1190.47 1249.3 1195.33 1245.97 1199.43C1242.77 1203.4 1239.06 1206.73 1237.78 1206.73C1236.62 1206.73 1223.44 1197.77 1208.71 1186.75C1193.99 1175.61 1180.03 1165.62 1177.98 1164.21C1175.93 1162.93 1172.22 1161.91 1169.91 1161.91C1167.74 1161.91 1164.54 1161.39 1162.87 1160.75C1161.33 1160.11 1158.13 1157.68 1155.83 1155.38C1153.4 1152.81 1150.84 1148.33 1149.68 1144.62C1148.66 1141.16 1147.89 1136.29 1147.89 1134.12C1147.89 1131.04 1149.17 1128.48 1156.73 1120.28V1077.38Z" fill="#FF5A47" fill-opacity="0.98"/>
<path d="M431.999 1063.55C431.87 1058.55 432.511 1055.22 434.047 1053.3C435.84 1050.87 437.248 1050.48 445.571 1050.48C454.15 1050.48 455.431 1050.87 457.095 1053.43C458.376 1055.22 459.016 1058.68 458.504 1070.34L464.778 1071.36C468.363 1071.87 471.948 1073.03 472.844 1073.92C473.869 1074.95 474.509 1078.79 474.381 1085.06C474.381 1090.32 473.741 1095.57 473.101 1096.59C472.332 1097.74 469.131 1098.77 458.376 1099.79L457.991 1118.36C457.735 1134.88 457.863 1137.06 459.912 1138.6C461.192 1139.49 464.65 1140.13 467.723 1140.13C471.436 1140.13 473.357 1140.78 473.741 1142.06C474.125 1143.08 474.381 1147.18 474.381 1151.02C474.381 1154.86 473.613 1159.47 472.844 1161.27C471.564 1163.7 469.643 1164.85 465.162 1165.75C461.705 1166.52 457.351 1167.03 455.174 1167.03C453.126 1167.03 449.412 1166.26 447.236 1165.36C444.931 1164.47 441.346 1161.39 435.328 1153.84L434.944 1129.38C434.815 1115.93 434.303 1103.63 434.047 1102.1C433.535 1099.79 432.511 1099.15 429.31 1099.15C427.005 1099.28 424.316 1098.51 423.42 1097.62C422.523 1096.72 421.499 1092.24 421.115 1087.63C420.603 1082.76 420.987 1077.89 421.755 1075.84C422.779 1073.15 424.188 1072.13 432.127 1070.98L431.999 1063.55Z" fill="#FF5A47" fill-opacity="0.98"/>
<path d="M343.648 1107.86C343.648 1079.04 343.905 1074.82 345.697 1073.03C347.106 1071.62 350.435 1070.98 356.325 1070.98C362.855 1070.85 365.416 1071.36 366.824 1073.03C368.361 1074.82 368.873 1081.09 369.385 1105.68C369.897 1130.4 370.41 1136.55 371.946 1138.21C373.098 1139.37 376.043 1140.26 378.988 1140.26C382.83 1140.39 384.622 1139.62 386.415 1137.32C388.592 1134.63 388.72 1132.19 388.08 1107.86C387.567 1090.19 387.823 1080.07 388.72 1077.76C389.488 1075.72 390.768 1073.79 391.537 1073.28C392.433 1072.77 396.915 1072.26 401.78 1072.26C409.079 1072.26 410.487 1072.64 411.64 1074.82C412.408 1076.36 412.92 1092.62 412.92 1115.55C412.92 1136.42 412.28 1155.89 411.64 1158.71C410.999 1161.52 409.719 1164.21 408.823 1164.72C407.926 1165.24 397.939 1165.75 386.671 1165.75C367.977 1165.75 365.672 1165.49 359.782 1162.8C356.325 1161.14 352.099 1158.19 350.563 1156.02C349.026 1153.97 346.85 1149.74 345.825 1146.54C344.161 1141.8 343.648 1134.63 343.648 1107.86Z" fill="#FF5A47" fill-opacity="0.98"/>
<path d="M486.161 1074.95C486.929 1073.54 488.722 1072.13 490.258 1071.87C491.795 1071.62 499.093 1071.23 506.776 1071.1C515.355 1071.1 521.757 1071.62 524.062 1072.51C525.983 1073.41 528.543 1075.46 532.001 1079.94L537.506 1076.1C541.348 1073.28 545.061 1072 550.567 1071.49C554.92 1070.98 560.938 1071.23 564.652 1072.13C568.493 1073.03 572.462 1074.95 574.511 1077.12C576.432 1079.04 578.993 1083.14 580.145 1086.34C582.066 1091.34 582.322 1096.97 582.066 1127.33C581.938 1153.45 581.553 1162.93 580.273 1164.21C579.377 1165.24 575.663 1165.88 571.054 1165.88C565.42 1165.88 562.859 1165.24 561.451 1163.7C559.914 1161.91 559.402 1156.02 559.146 1131.94C558.762 1111.96 558.121 1101.84 557.225 1100.69C556.329 1099.79 553.768 1099.02 551.591 1099.15C549.03 1099.15 547.11 1099.92 546.726 1101.07C546.341 1102.1 546.085 1115.93 546.085 1131.81C546.085 1147.69 545.573 1161.65 544.933 1162.93C544.293 1164.08 541.988 1165.49 539.811 1166.13C537.634 1166.65 533.153 1166.65 529.952 1166.13C526.367 1165.49 523.55 1164.21 522.909 1162.93C522.269 1161.65 521.757 1147.82 521.757 1132.19C521.757 1110.93 521.373 1103.12 520.221 1101.46C519.324 1100.3 517.66 1099.28 516.635 1099.15C515.611 1098.9 513.818 1098.9 512.794 1099.02C511.77 1099.02 510.105 1100.56 509.337 1102.35C508.184 1104.66 507.672 1113.75 507.672 1133.73C507.672 1157.68 507.416 1162.16 505.624 1163.83C504.343 1165.11 501.014 1165.75 495.764 1165.75C490.899 1165.88 487.185 1165.24 486.289 1164.21C485.009 1162.93 484.624 1152.05 484.624 1120.03C484.624 1090.19 485.009 1076.61 486.161 1074.95Z" fill="#FF5A47" fill-opacity="0.98"/>
<path d="M677.586 1191.11C679.507 1189.31 683.092 1188.8 700.378 1188.55C711.646 1188.29 772.723 1188.29 836.104 1188.55C937.515 1188.8 951.599 1189.06 953.264 1190.72C954.801 1192.26 955.185 1195.72 954.929 1207.12C954.801 1215.06 954.032 1222.23 953.264 1223.13C952.24 1224.28 923.43 1224.66 816.001 1224.41C686.421 1224.15 679.763 1224.02 677.714 1221.84C675.794 1219.92 675.409 1217.11 675.409 1206.48C675.281 1195.46 675.665 1192.9 677.586 1191.11Z" fill="#FF5A47" fill-opacity="0.98"/>
<path d="M675.153 1291.39C675.025 1278.71 675.281 1276.4 677.33 1274.35C679.507 1272.18 686.549 1272.05 1009.6 1272.05L1011.52 1274.99C1012.93 1277.04 1013.44 1281.53 1013.44 1292.28C1013.44 1303.3 1013.06 1307.01 1011.52 1308.55C1010.5 1309.57 1007.17 1310.73 1004.23 1311.11C1001.15 1311.49 926.759 1311.62 838.921 1311.49L838.173 1311.49C680.654 1311.11 678.992 1311.11 677.202 1308.55C675.922 1306.76 675.281 1301.76 675.153 1291.39Z" fill="#FF5A47" fill-opacity="0.98"/>
<path d="M521.757 1365.54C522.397 1364.52 525.598 1363.36 529.056 1362.98C532.385 1362.59 593.718 1362.47 665.166 1362.47C736.614 1362.59 804.093 1362.72 814.977 1362.85C829.958 1362.85 835.464 1363.36 837.385 1364.77C839.689 1366.44 839.945 1367.85 839.689 1381.81C839.433 1393.59 838.921 1397.3 837.385 1398.84C835.592 1400.5 816.642 1400.76 524.958 1400.12L522.653 1397.17C520.733 1394.87 520.349 1392.05 520.477 1380.91C520.477 1373.48 521.117 1366.56 521.757 1365.54Z" fill="#FF5A47" fill-opacity="0.98"/>
<path d="M762.351 1550.99C762.223 1549.71 771.314 1539.59 783.606 1527.04L804.99 1505.14H818.306C825.605 1505.14 832.775 1505.78 834.184 1506.42C836.744 1507.7 836.744 1508.98 836.488 1646.66L849.165 1646.91C859.024 1647.17 862.097 1647.68 863.634 1649.35C865.17 1651.01 865.426 1654.47 865.298 1664.46C865.042 1675.09 864.53 1677.65 862.737 1679.06C860.945 1680.21 850.573 1680.6 817.922 1680.34C791.801 1680.08 774.899 1679.44 774.003 1678.67C773.235 1677.91 772.851 1671.63 773.363 1646.66L802.813 1645.89L803.197 1600.55C803.453 1558.67 803.325 1555.21 801.276 1556.11C800.124 1556.62 796.411 1560.59 792.953 1565.08C789.624 1569.43 785.783 1573.02 784.631 1573.02C783.35 1573.02 777.844 1568.66 772.466 1563.15C767.089 1557.65 762.479 1552.14 762.351 1550.99Z" fill="#FF5A47" fill-opacity="0.98"/>
</svg>
