<svg width="914" height="989" viewBox="0 0 914 989" fill="none" xmlns="http://www.w3.org/2000/svg">
<path fill-rule="evenodd" clip-rule="evenodd" d="M0 0H786.604L786.744 20.0891C786.744 31.0467 787.166 165.208 787.446 318.194C787.727 471.18 787.727 598.457 786.604 605.482H741.655L741.515 430.299C741.374 333.787 741.374 248.936 741.374 241.631C741.514 234.326 741.234 226.88 740.25 221.963H46.3534L47.0558 907.801L565.371 908.222L566.214 950.367L560.877 951.351C557.927 951.912 432.632 952.474 282.335 952.474C132.037 952.474 7.02325 952.053 0 950.367L0 0ZM46.3534 174.199H740.953V44.9545H46.3534V174.199ZM389.65 301.617C525.62 301.757 640.52 301.898 653.162 302.038V324.516C653.162 346.852 653.022 346.993 649.931 347.414C648.246 347.555 532.643 347.695 393.021 347.695C253.399 347.695 138.92 347.414 138.498 346.993C138.077 346.571 137.656 340.952 137.656 334.349C137.515 327.747 137.234 317.913 137.094 312.294C136.953 303.443 137.234 302.179 139.622 301.757C141.027 301.476 253.539 301.476 389.65 301.617V301.617ZM392.6 390.964C530.817 390.964 645.998 391.245 653.162 391.947V435.497H137.656L137.375 413.863C137.094 396.021 137.375 392.088 139.06 391.526C140.184 391.245 254.242 390.964 392.6 390.964V390.964ZM441.06 474.832L440.358 520.489H138.358L138.077 499.417C137.937 487.897 138.077 477.642 138.358 476.659C138.779 475.113 167.575 474.832 441.06 474.832ZM314.641 606.465C346.667 606.746 416.338 606.886 566.074 606.886V779.68H178.39V733.321L136.953 732.619V651.138L178.39 650.436V606.886L217.299 606.605C238.79 606.324 282.475 606.324 314.641 606.465V606.465ZM608.213 650.436L696.004 651.138L696.706 691.176L779.861 691.317C825.653 691.457 864.983 691.879 871.585 693.283L872.287 733.321L850.796 733.461C838.997 733.602 828.603 733.602 827.62 733.461C826.355 733.321 825.793 739.081 825.232 780.383L781.687 781.788L781.266 797.943C780.985 806.794 781.126 815.504 781.547 817.33C782.249 820.28 782.952 820.42 794.61 820.28C801.353 820.28 811.185 820.28 825.934 820.42V859.756L865.966 860.458L866.669 903.305H913.022V989H821.72V949.665H780.985V910.33L738.143 909.627L737.301 860.458L696.706 859.756V882.233C696.706 900.917 696.285 904.851 694.599 905.413C693.335 905.834 683.643 906.115 653.162 906.115V949.665H608.213V650.436ZM95.3757 92.7187H137.515V129.244H95.3757V92.7187ZM222.496 93.4212L222.918 110.701C223.058 121.096 222.637 128.12 221.794 128.542C221.092 128.963 211.681 129.244 201.146 129.244C190.47 129.244 181.621 129.104 181.481 128.963C181.2 128.682 181.059 120.956 180.919 111.684C180.919 102.412 180.919 94.4045 181.059 93.8426C181.059 93.1402 190.47 92.8592 222.496 93.4212V93.4212Z" fill="#F73029"/>
</svg>
