<svg width="1024" height="847" viewBox="0 0 1024 847" fill="none" xmlns="http://www.w3.org/2000/svg">
<path fill-rule="evenodd" clip-rule="evenodd" d="M36.7279 0H324.164V33.5413H359.295V247.567H635.553V178.887H675.475L675.794 195.338C675.794 204.282 675.794 212.588 675.794 213.546C675.475 215.143 679.946 215.623 710.606 215.623V247.567H744.14V282.705L780.07 283.504V320.24L743.342 321.198L744.46 337.01C745.577 350.586 745.418 353.142 743.342 353.781C742.064 354.26 734.08 354.579 710.606 354.579V386.524H675.475V424.856H635.553L635.393 379.656C635.234 354.899 635.234 331.58 635.553 321.038H282.645V73.4714H71.859V777.839H207.593V567.008H212.703C215.577 566.848 232.664 566.688 283.444 566.209L284.242 602.146H320.97V638.882H284.242V811.38H247.514V846.519H143.718C86.5502 846.519 39.4426 846.678 38.6442 846.998C38.0054 847.157 37.3667 839.171 36.7279 811.38H0V33.5413H36.7279V0ZM846.34 178.887H918.199L918.358 182.561C918.358 184.477 918.678 192.783 918.997 215.623H953.33V247.567L987.662 248.365V282.705H1023.59V321.038H987.662V353.781L953.33 354.579V386.524H918.199L918.678 424.058L846.34 424.856L847.138 353.781L880.672 354.1V317.045L915.005 316.247L914.206 284.143L880.672 284.941L880.513 268.171C880.513 259.067 880.353 250.282 880.193 248.845C879.874 246.289 877.958 245.97 846.34 245.97V178.887ZM425.885 494.974C427.162 495.293 427.801 500.564 427.96 528.675H461.495L462.293 566.209L471.076 566.369C475.866 566.529 483.691 566.688 496.626 567.008V602.146H531.757V638.882H496.626L495.827 671.625L461.495 672.423V707.562H427.96L427.162 741.902H356.9V674.819L389.636 674.02L390.434 634.889H423.968L424.767 603.743H389.636V565.411H356.101V495.133L390.115 494.654C408.638 494.495 424.767 494.654 425.885 494.974V494.974ZM602.179 495.133H676.273L675.475 528.675H710.606V567.008L720.666 566.848C726.095 566.848 733.601 566.848 744.14 567.008V602.146H780.868V638.882L744.939 639.681V671.625L710.606 672.423V707.562L676.273 708.36L675.475 742.7H603.616V709.958C603.616 691.909 603.456 676.736 603.296 675.937C602.977 675.298 610.163 674.659 635.553 674.02L636.352 634.889L652.32 635.368C664.297 635.687 668.608 635.368 669.407 633.771C670.045 632.653 670.684 625.465 670.684 603.743H635.553V565.411H603.616L603.456 534.584C603.296 517.814 602.977 502.001 602.817 499.606L602.179 495.133ZM846.18 494.974H918.837L918.039 528.515H953.17V566.848L964.029 566.209C969.937 565.89 977.921 566.049 988.62 567.647L987.503 602.146H1005.55C1015.93 602.146 1023.59 602.785 1023.91 603.584C1024.07 604.542 1024.07 612.688 1023.43 638.722H988.301V672.263H953.17V707.402L918.837 708.201L918.039 742.541H846.18V673.861H880.513L880.353 658.368C880.353 649.743 880.513 640.799 881.311 633.931L914.845 635.528V603.584H898.557C889.455 603.584 881.95 603.424 881.79 603.105C881.471 602.945 881.151 594.48 880.513 565.251H846.18V494.974Z" fill="#F73029"/>
</svg>
