<svg width="949" height="989" viewBox="0 0 949 989" fill="none" xmlns="http://www.w3.org/2000/svg">
<path fill-rule="evenodd" clip-rule="evenodd" d="M876.26 0V37.8959L889.054 38.1327C896.043 38.1327 903.625 38.3696 910.022 38.6064L910.614 73.4233H948.522V98.6477C948.64 112.385 948.64 247.152 948.522 397.907C948.522 548.661 948.285 672.178 948.166 672.297C948.048 672.533 940.703 672.889 931.937 673.126C923.171 673.362 914.76 673.718 913.22 673.718C910.614 673.836 910.614 673.955 910.614 710.548L876.852 711.14L875.667 745.483L800.444 746.075V866.631C800.325 932.831 799.97 987.424 799.496 988.017C799.022 988.49 789.9 988.727 759.574 988.253L758.982 953.318H723.443V918.975L708.99 919.093C700.935 919.212 692.524 919.212 686.127 918.975L685.89 903.343C685.772 894.698 685.653 886.882 685.653 886.171C685.535 884.987 681.27 884.632 651.181 884.632V851.473H615.642V817.13H580.103L579.985 802.682C579.866 794.629 579.866 786.339 580.103 780.418H543.38V744.891L335.715 744.772C221.635 744.772 115.73 744.654 100.567 744.536C77.4664 744.299 72.8464 744.062 71.8987 742.522C71.3064 741.575 70.714 734.114 70.714 711.14L54.4847 710.903C45.4815 710.785 37.8999 710.311 37.5445 709.956C37.1891 709.482 36.9522 701.192 36.9522 673.836L23.9213 673.718C16.8136 673.599 8.99504 673.362 6.74425 673.126C4.49346 672.889 1.88729 672.415 1.17651 672.06C-0.00811575 671.586 -0.245041 610.834 0.228809 74.0154L36.3599 73.4233V57.1991C36.3599 45.9488 36.7153 40.3828 37.7814 39.4354C38.7291 38.3696 43.9415 37.8959 70.714 37.8959V20.7243C70.714 11.2503 71.0694 2.72377 71.4248 1.77637C72.0171 0.236849 117.862 0 876.26 0V0ZM104.357 56.0148C104.239 64.5414 103.884 72.3574 103.528 73.1864C103.054 73.897 101.514 74.6075 100.093 74.4891C98.5528 74.3707 91.5635 74.3707 84.3372 74.4891L71.3064 74.6075C70.714 99.832 70.2402 107.411 70.0033 107.766C69.6479 108.122 62.4217 108.24 54.0108 108.122L38.7292 107.766V638.309C62.4217 637.835 69.7663 638.19 70.3587 638.664C70.8325 639.256 71.3064 647.309 71.3064 656.428V673.244L106.253 673.836C106.371 680.705 106.49 688.402 106.608 695.508L106.845 708.179H580.103V742.522H615.642V778.642H651.773L652.365 813.577C681.152 813.577 685.653 813.932 686.127 815.117C686.364 815.827 686.838 823.762 686.956 832.525L687.312 848.512C711.241 848.868 718.823 848.986 719.652 848.986C720.718 849.105 721.074 853.486 721.074 866.868V884.632C747.254 884.632 756.612 884.277 758.745 884.04L762.536 883.448L763.128 708.771L839.536 708.179V673.836H875.075C874.957 646.717 875.312 638.664 875.667 638.309C876.141 637.953 883.96 637.717 893.2 637.717H910.022L910.614 107.766H875.075C874.72 89.8843 874.601 83.1341 874.483 81.1209C874.364 79.2261 874.246 76.7392 874.127 75.7918C873.89 74.2522 871.047 74.0154 856.95 73.897H840.129L839.536 40.2644H104.476L104.357 56.0148ZM530.349 177.755L529.757 216.243L339.032 216.48C188.94 216.717 148.07 216.48 147.359 215.296C146.885 214.467 146.53 206.059 146.649 196.703C146.649 187.229 147.004 179.058 147.241 178.584C147.596 178.111 233.837 177.755 530.349 177.755ZM800.444 177.755V193.151C800.444 201.559 800.681 209.256 801.036 210.322C801.51 211.743 804.59 212.098 835.982 212.098L835.745 219.441C835.745 223.467 835.745 230.928 835.982 245.257H869.152L869.27 261.482C869.389 270.482 869.389 279.127 869.27 280.785C869.033 282.324 868.678 283.982 868.323 284.338C867.967 284.574 860.623 284.693 835.982 284.338L835.39 316.904L800.444 317.496L801.036 354.8L764.905 355.392V371.616C764.905 380.617 764.668 388.196 764.194 388.551C763.839 388.788 756.257 389.262 747.254 389.38C738.369 389.617 730.906 389.972 730.551 390.446C730.195 390.801 729.958 398.38 729.958 423.486L693.235 424.671V457.83L659.473 458.422L658.881 494.541L621.565 495.133L621.684 511.95C621.802 521.187 621.565 529.476 621.091 530.305C620.499 531.49 612.443 531.845 552.857 531.845V568.557H479.41V496.318H514.949V424.079H552.857L553.449 389.143L589.58 388.551L590.172 354.8L623.934 354.208L624.053 347.339C624.053 343.55 624.053 337.036 624.053 332.892C623.934 328.628 624.171 324.247 624.527 323.062C625.001 321.168 626.896 321.049 658.881 321.049L658.525 303.878C658.288 291.088 658.644 286.469 659.71 285.877C660.539 285.403 668.239 285.166 692.643 285.522V268.942C692.643 259.705 692.998 252.244 693.472 252.126C693.946 252.008 699.987 251.771 706.858 251.652C713.729 251.415 721.429 251.297 728.774 251.179V216.243L762.536 215.651L762.299 197.414C762.18 187.466 762.536 178.94 763.128 178.466C763.602 178.111 772.25 177.755 800.444 177.755V177.755ZM730.788 263.021C731.143 269.179 731.498 276.166 731.617 278.653L731.735 283.153H763.72L763.128 250.586C738.962 249.994 731.498 250.35 731.024 250.823C730.669 251.415 730.551 256.863 730.788 263.021ZM765.497 315.72L799.259 316.312C799.259 290.969 798.785 285.64 798.074 286.114C797.364 286.351 796.89 286.114 796.89 285.522C796.89 284.93 789.782 284.456 780.897 284.338L764.905 284.219L765.497 315.72ZM516.252 506.739C516.133 512.423 516.252 520.121 516.607 523.911L517.318 530.661L551.08 530.069V496.91L516.489 496.318L516.252 506.739ZM148.781 316.431H323.513C463.181 316.431 498.246 316.667 498.364 317.852C498.364 318.681 498.482 327.207 498.601 336.918C498.838 347.695 498.482 354.8 497.772 355.155C497.061 355.629 418.165 355.866 322.447 355.748C178.989 355.629 148.07 355.392 147.359 354.09C146.885 353.261 146.53 345.8 146.649 337.51C146.649 329.22 147.122 321.049 147.715 319.391L148.781 316.431ZM332.516 458.303C384.995 458.54 400.869 458.895 401.462 460.08C401.935 460.909 402.172 468.962 401.817 494.66L147.715 495.252L147.478 490.278C147.478 487.436 147.359 482.225 147.359 478.672C147.478 475.12 147.478 469.08 147.715 458.54L205.998 458.303C238.102 458.066 295.082 458.066 332.516 458.303V458.303Z" fill="#F73029"/>
</svg>
