<svg width="1281" height="1536" viewBox="0 0 1281 1536" fill="none" xmlns="http://www.w3.org/2000/svg">
<path fill-rule="evenodd" clip-rule="evenodd" d="M355.728 0.585274C548.714 0.780365 745.213 0.975456 792.436 0.975456C839.658 0.780365 968.836 0.585274 1280.85 0V29.2637C1281.05 45.2612 1281.05 338.093 1280.85 679.893C1280.85 1021.69 1280.46 1309.06 1280.46 1318.82C1280.27 1328.57 1279.49 1337.74 1278.71 1339.3C1277.54 1341.64 1271.88 1342.23 1215.87 1342.23L1215.29 1096.41C1215.09 961.214 1214.7 729.056 1214.31 580.396C1213.92 341.214 1213.53 310.39 1211 311.17C1209.43 311.756 1079.48 312.341 922.199 312.731C764.922 312.926 597.302 313.121 549.495 313.121C501.687 313.121 373.68 312.926 67.5161 312.146L67.1258 327.753C67.1258 336.337 66.9307 344.726 67.1258 346.287C67.3209 347.848 67.5161 410.277 67.5161 484.802C67.5161 559.326 67.7112 720.082 67.5161 841.818C67.5161 963.555 67.5161 1111.82 67.5161 1278.82L88.3953 1278.63C100.103 1278.63 159.033 1278.43 219.72 1278.43C280.406 1278.43 331.336 1278.63 332.897 1278.63C334.458 1278.63 354.752 1278.82 377.778 1278.82C400.803 1279.02 462.856 1279.21 515.347 1279.21C567.837 1279.21 613.694 1279.21 616.816 1279.21C619.938 1279.21 653.306 1279.21 690.966 1279.02C728.432 1278.82 761.214 1278.82 763.556 1278.82C768.044 1278.82 768.044 1279.02 768.044 1343.2H762.58C759.653 1343.4 588.131 1343.59 381.29 1343.79C174.644 1343.98 4.68319 1343.4 3.70753 1342.62C2.927 1341.64 2.14646 1144.6 1.95133 904.638C1.95133 664.481 1.36593 467.048 0.585399 465.683C-0.195133 464.512 -0.195133 463.342 0.585399 463.342C1.56106 463.342 2.14646 359.943 1.95133 233.524C1.95133 107.3 2.53673 2.92637 3.31726 1.95091C4.29293 0.585274 123.324 0.195091 355.728 0.585274V0.585274ZM67.5161 249.717C948.347 249.912 1206.51 249.717 1209.63 249.327L1214.9 248.741V66.331C872.44 67.1114 731.749 67.3065 681.21 67.1114C630.67 66.9163 575.057 67.1114 557.3 67.3065C539.543 67.5015 523.737 67.5015 522.176 67.5015C520.615 67.3065 503.834 67.3065 485.101 67.3065C466.368 67.3065 431.634 67.3065 408.023 67.3065C384.412 67.3065 307.53 67.5015 237.282 67.5015C167.034 67.5015 101.079 67.5015 90.932 67.3065C80.7851 67.1114 71.4187 66.5261 70.2479 65.9408C68.6869 65.1605 68.1015 91.3027 67.9063 157.243L67.5161 249.717ZM953.225 424.128C954.006 425.494 972.934 426.274 1011.77 426.274C1043.57 426.469 1073.82 426.664 1088.84 427.25V458.269C1088.84 475.242 1088.26 489.484 1087.48 489.874C1086.7 490.459 1000.45 491.044 895.661 491.24C770.385 491.63 705.601 492.41 705.601 493.581C705.601 494.751 704.626 494.556 703.065 493.386C701.308 491.63 639.451 491.045 450.367 490.849C312.798 490.849 199.231 490.264 198.06 489.679C196.889 489.094 196.109 476.413 196.109 457.489C196.109 433.883 196.694 426.274 198.646 426.274C200.011 426.274 369.387 426.274 575.252 426.274C846.683 426.274 949.713 425.689 950.884 424.128C951.859 422.763 952.64 422.567 953.225 424.128V424.128ZM551.251 548.596C742.872 548.987 899.954 549.377 900.149 549.572C900.539 549.962 900.734 563.813 900.539 580.396C900.539 601.661 899.759 611.221 898.003 612.001C896.832 612.781 890.783 613.367 884.538 613.562C878.294 613.562 872.44 614.147 871.269 614.537C870.294 615.122 869.318 614.927 869.318 614.147C869.318 613.367 817.803 612.391 754.775 612.196C691.747 611.806 638.866 611.611 637.11 611.611C635.549 611.611 537.201 611.611 418.561 611.806C300.115 611.806 201.573 611.806 199.621 611.806C196.499 611.611 196.109 608.684 195.719 580.591C195.328 551.328 195.523 549.572 199.036 548.987C200.987 548.596 359.63 548.401 551.251 548.596V548.596ZM399.828 718.326C400.999 719.106 460.514 719.496 531.738 719.301C603.156 719.106 682.185 718.911 707.357 719.106C732.725 719.106 798.875 719.106 854.683 719.301C910.491 719.496 957.518 719.886 959.079 720.277C961.616 721.057 962.006 725.544 962.006 770.61L1017.62 771.586V843.769C1017.62 911.271 1017.42 916.148 1014.3 916.343C1012.35 916.343 957.323 916.733 891.758 917.124C826.389 917.514 771.751 918.294 770.385 918.879C768.629 919.66 768.044 925.903 768.434 942.485C768.629 954.971 768.434 965.896 767.849 966.872C767.458 967.847 750.677 968.628 730.773 968.823C711.065 968.823 660.135 968.823 617.596 968.823C575.252 968.823 490.76 969.018 430.073 969.213C369.192 969.408 318.652 969.018 317.872 968.042C316.896 967.262 316.506 955.361 317.091 916.929H291.334C277.089 916.929 264.6 916.733 263.43 916.538C262.454 916.148 261.673 910.295 262.064 902.882C262.259 895.664 262.844 874.594 263.039 856.06C263.235 837.526 263.039 822.309 262.454 822.309C262.064 822.309 261.869 812.555 262.064 800.459C262.259 788.363 263.039 776.658 263.43 774.512C264.21 771 265.966 770.61 316.116 770.61L316.701 747.199C316.896 734.323 317.677 722.813 318.067 721.447C318.847 719.496 328.409 719.106 357.094 719.301C378.168 719.496 395.73 719.106 396.51 718.326C397.096 717.74 398.657 717.74 399.828 718.326V718.326ZM902.881 1006.67L902.491 1068.12H936.639C955.567 1068.12 970.982 1068.9 970.982 1069.68C970.982 1070.47 971.373 1085.68 971.958 1103.24C972.348 1120.99 972.934 1135.82 973.324 1136.02C973.519 1136.41 988.349 1136.6 1005.91 1136.6C1023.67 1136.8 1039.67 1137.19 1041.62 1137.58C1044.35 1138.36 1044.94 1140.31 1044.74 1148.7C1044.55 1154.35 1044.55 1168.99 1045.52 1203.71L1076.94 1204.49C1094.31 1204.69 1109.92 1205.86 1111.87 1206.83C1114.99 1208.39 1115.19 1211.71 1114.8 1239.41C1114.41 1256.39 1114.41 1271.21 1114.8 1272.58C1115.19 1274.34 1123.19 1274.92 1146.99 1274.92C1164.36 1274.92 1179.19 1275.7 1179.58 1276.68C1180.17 1277.65 1180.36 1293.06 1179.58 1343.2H1114.8C1079.09 1343.2 1048.65 1343.2 1046.89 1343.2C1044.55 1343.2 1043.96 1347.69 1043.96 1398.8L1075.18 1399.39C1092.36 1399.58 1107.58 1400.36 1108.94 1400.75C1110.89 1401.54 1111.09 1411.87 1110.5 1446.21C1109.92 1470.6 1109.53 1500.64 1109.33 1535.37L1076.16 1535.95C1055.67 1536.15 1042.79 1535.76 1042.01 1534.39C1041.62 1533.42 1040.84 1518.2 1040.25 1469.04L971.763 1468.84V1400.75L966.885 1400.56C964.153 1400.36 957.713 1399.97 952.25 1399.97C946.981 1399.78 934.492 1399.58 906.393 1399.78L905.222 1406.22C904.442 1409.73 904.052 1423.97 904.247 1437.82C904.247 1451.87 903.661 1464.16 902.686 1465.13C901.71 1466.31 888.441 1467.09 870.098 1467.09C853.122 1466.89 838.097 1466.31 836.731 1465.52C834.779 1464.55 834.389 1417.14 834.389 1237.46C834.584 1083.54 835.365 1009.79 836.731 1008.23C838.292 1006.28 846.683 1005.89 902.881 1006.67V1006.67ZM165.473 127.395C180.693 127.59 193.572 128.175 193.767 128.37C194.157 128.565 194.353 138.905 194.548 151.196C194.548 163.681 194.548 176.948 194.157 188.263H163.912C141.862 188.263 133.471 187.678 132.495 185.922C131.715 184.556 131.325 171.68 131.52 157.048C131.91 136.369 132.495 130.321 134.837 128.76C136.593 127.395 147.911 126.809 165.473 127.395ZM294.651 126.809C307.53 126.809 318.652 127.395 319.043 128.175C319.628 128.955 320.018 142.417 319.628 187.288H287.626C260.308 187.288 255.819 186.897 256.405 184.361C256.795 182.8 257.381 170.12 257.771 156.073C258.161 142.221 259.137 130.126 259.917 129.541C260.893 128.76 263.82 127.98 266.357 127.59C269.089 127.199 281.772 126.809 294.651 126.809V126.809ZM417.975 126.809C434.366 126.809 448.026 127.395 448.026 127.785C448.221 128.37 448.221 142.026 448.611 187.288L419.536 187.873C403.535 188.263 388.315 188.068 385.973 187.483C381.68 186.507 381.485 186.117 382.071 158.024C382.461 135.979 383.241 129.345 385.388 128.175C386.754 127.395 401.584 126.809 417.975 126.809Z" fill="#F73029"/>
</svg>
