<svg width="947" height="811" viewBox="0 0 947 811" fill="none" xmlns="http://www.w3.org/2000/svg">
<path fill-rule="evenodd" clip-rule="evenodd" d="M31.2377 9.26257V17.8797H16.1574V37.2682H0V778.34H16.1574L16.696 795.035L31.2377 795.574V810.654H914.51V795.574H930.668V778.34L946.286 777.801L946.825 37.2682H930.668V17.8797H914.51V0.645508H31.2377V9.26257ZM82.6183 23.6963C83.0492 22.8346 84.0186 22.296 84.7726 22.6191C85.5266 22.9423 86.9269 23.2654 87.7887 23.2654C88.9735 23.2654 89.4044 24.558 89.4044 34.5754L102.33 35.1139L102.438 31.0208C102.546 28.8665 102.653 26.2814 102.761 25.4197C102.761 24.2348 104.162 23.804 111.486 23.804L112.563 34.5754H121.073L120.75 23.2654H128.505L128.721 34.5754H137.338L137.877 28.6511C138.2 25.312 138.738 22.8345 139.169 22.9423C139.708 23.1577 141 23.2654 142.185 23.2654C144.016 23.2654 144.34 23.9117 144.34 28.6511C144.34 33.8214 144.447 34.0368 147.571 34.2523C149.402 34.4677 151.126 34.2522 151.449 34.0368C151.664 33.7137 151.88 31.2363 151.88 28.6511C151.88 25.9583 152.095 23.4808 152.311 23.2654C152.634 22.9422 154.142 22.8345 155.542 22.9423C158.127 23.1577 158.343 23.6962 158.558 28.8665C158.881 34.4676 158.989 34.5754 165.883 35.1139V23.2654H173.423V34.0368L177.947 34.5754C181.179 35.1139 182.794 34.7908 183.441 33.8213C183.871 33.0673 184.087 30.3745 183.656 23.2654H220.818L221.357 34.5754L229.435 34.7908C233.852 35.0063 237.837 34.7908 238.376 34.2523C238.807 33.8214 239.345 31.1285 239.668 23.2654H243.654C245.916 23.2654 248.501 22.9422 249.363 22.7268C250.655 22.2959 250.979 23.2654 250.979 34.0368H275.753V23.2654H289.756V28.6511C289.756 31.9902 290.187 34.1445 291.049 34.3599C291.803 34.4676 293.742 34.4676 295.358 34.3599C298.158 34.0368 298.374 33.7137 298.374 28.6511C298.374 23.3731 298.481 23.2654 301.605 22.9423C303.436 22.8345 305.16 22.9422 305.483 23.2654C305.698 23.4808 305.914 26.2814 305.914 35.1139L309.361 34.7908C312.808 34.5754 312.915 34.4676 313.454 23.2654H331.766V34.0368H340.383V28.8665C340.275 26.066 340.491 23.4808 340.814 23.2654C341.137 22.9422 342.753 22.8345 344.584 22.9423C347.815 23.2654 347.923 23.3731 347.923 34.5754L351.693 34.7908C355.032 35.0063 355.571 34.6831 356.11 32.098C356.54 30.4822 356.648 27.7894 356.433 26.1737C356.002 23.3731 356.11 23.2654 366.235 23.2654V28.6511C366.235 31.9902 366.666 34.1445 367.527 34.3599C368.282 34.5753 370.005 34.5753 371.298 34.3599C373.452 34.0368 373.775 33.3905 373.775 28.6511C373.775 23.2654 373.775 23.2654 377.222 23.2654C380.453 23.2654 380.777 23.4809 380.346 26.1737C380.13 27.7894 380.238 30.4822 380.669 32.098C381.1 34.1445 381.961 35.1139 383.469 35.1139C384.654 35.1139 386.593 34.5754 387.778 34.0368C389.394 33.1751 389.932 31.8825 389.932 28.1125C389.932 23.3731 390.04 23.2654 393.164 23.2654C396.288 23.2654 396.395 23.3731 396.395 28.6511C396.395 32.4211 396.826 34.1445 398.011 34.5754C398.873 34.7908 401.35 35.1139 407.167 35.1139V23.2654H417.4C423.001 23.2654 427.849 23.2654 428.064 23.2654C428.279 23.2654 428.71 25.312 428.926 27.7894C429.249 30.3746 429.572 32.9597 429.572 33.7137C429.68 34.6831 431.403 35.0062 439.805 34.5754L439.913 28.8665C440.02 23.2654 440.02 23.2654 447.022 23.2654V29.1897C447.022 35.0062 447.022 35.1139 450.253 35.1139C452.192 35.1139 453.7 34.4677 454.024 33.4982C454.347 32.5288 454.562 29.9436 454.562 23.2654H466.411L466.949 34.5754L471.797 34.8985C474.49 35.1139 478.691 34.8985 485.8 34.0368V23.2654H503.034V28.6511C503.034 33.1751 503.358 34.0368 505.189 34.2523C506.374 34.4677 508.959 34.5754 510.79 34.5754C514.345 34.5754 514.345 34.4676 514.883 23.2654L531.041 22.7268V28.1125C531.041 33.4982 531.041 33.4983 535.026 34.2523C537.288 34.5754 539.442 34.7908 539.873 34.4676C540.412 34.2522 540.735 31.6671 540.735 28.8665C540.627 26.066 540.843 23.4808 541.166 23.2654C541.381 22.9422 543.428 22.8345 549.352 23.2654L548.814 33.4982L556.893 34.0368V23.2654H564.433V28.6511C564.433 33.8214 564.54 34.0368 567.88 34.683C569.818 35.0062 573.265 35.0062 579.513 34.0368V23.2654H593.516V28.6511C593.516 32.7442 593.947 34.1445 595.347 34.683C596.424 35.0062 598.363 35.0062 599.656 34.683C601.81 34.0368 602.133 33.2828 602.133 23.2654H611.828V35.1139L615.275 34.7908C618.722 34.5754 618.829 34.4676 619.045 28.8665C619.368 23.3731 619.476 23.2654 622.276 23.4808C625.077 23.804 625.292 24.1271 625.508 34.5754H634.987L636.064 23.804L661.377 23.2654L661.916 34.5754L672.149 35.1139V23.2654H682.92L683.459 34.5754H692.076L692.615 23.2654H700.694C705.11 23.2654 708.988 23.2654 709.203 23.2654C709.418 23.1577 709.849 25.6351 710.28 28.6511C710.819 33.606 711.142 34.0368 714.373 34.683C716.312 35.0062 718.574 35.0062 719.221 34.683C720.082 34.2522 720.621 31.8825 720.621 23.2654H726.545C729.777 23.2654 732.793 23.1577 733.224 22.9423C733.762 22.8345 734.301 25.312 735.163 34.5754H742.703L743.241 23.2654H756.167L756.383 28.8665C756.706 34.3599 756.814 34.5754 759.937 34.5754C761.661 34.6831 763.815 34.5753 764.461 34.3599C765.323 34.1445 765.862 31.9902 765.862 23.2654H769.632C773.186 23.2654 773.402 23.3731 773.402 27.0354C773.402 29.082 773.617 31.2362 773.94 31.8825C774.264 32.4211 774.479 33.3905 774.479 34.0368C774.479 34.5754 776.095 34.8985 777.926 34.7908C781.373 34.4677 781.481 34.3599 782.019 23.2654H794.945V27.7894C794.945 30.3746 795.268 32.9597 795.807 33.4982C796.238 34.1445 799.362 34.7908 808.948 35.1139V23.2654H816.488C820.582 23.2654 824.244 23.2654 824.459 23.2654C824.675 23.1577 825.213 25.8506 825.536 29.1897C826.183 34.8985 826.291 35.1139 829.091 34.5754C830.815 34.3599 832.969 34.1445 833.938 34.0368C835.554 34.0368 835.877 32.9597 835.877 28.6511C835.877 23.3731 835.985 23.2654 839.109 23.2654C842.233 23.2654 842.34 23.3731 842.556 28.8665C842.879 34.0368 843.094 34.5754 845.572 34.7908C847.08 35.0063 848.911 34.5754 849.665 33.7137C850.419 32.9597 851.065 30.3745 850.958 23.2654H860.652V34.5754H874.117L874.655 28.6511C874.978 24.8811 875.624 22.7268 876.486 22.7268C877.24 22.7268 880.579 22.8345 889.735 23.2654V30.2668C889.735 35.8679 890.058 37.3759 891.566 38.0222C892.644 38.4531 897.706 38.8839 912.356 38.8839V41.7922C912.356 43.4079 912.679 45.0236 913.11 45.2391C913.648 45.4545 916.018 45.8853 918.495 45.993C921.081 46.2084 923.127 46.7471 923.127 47.1779C923.127 47.6088 922.158 49.0091 920.973 50.1939C919.25 51.8096 918.819 53.7484 918.819 65.2738H923.127C927.221 65.2738 927.436 65.3815 927.436 68.5052C927.436 71.4135 927.113 71.7367 923.343 71.9521C919.465 72.2752 919.357 72.3829 919.034 76.7992C918.819 81.2155 918.926 81.4309 921.727 81.2155C923.45 81.1077 925.389 81.3232 926.036 81.754C926.79 82.1849 927.436 83.6929 927.436 85.2009C927.436 87.4628 926.897 87.8937 924.205 87.8937C922.05 87.8937 920.614 88.6118 919.896 90.048C919.25 91.2329 918.819 94.3566 918.819 101.897H927.436V113.745H473.412C70.554 113.745 19.3889 113.53 19.3889 112.129C19.3889 111.052 20.3583 110.514 22.0818 110.514C24.2361 110.514 24.8824 109.867 25.3133 106.959C25.6364 105.02 25.6364 102.651 25.3133 101.573C24.9901 100.496 23.6976 99.7422 22.0818 99.7422C20.0352 99.7422 19.3889 99.096 19.3889 97.2648C19.2812 95.4337 20.1429 94.6797 22.6204 94.0334C25.6364 93.2794 25.8519 92.9563 25.5287 88.6478C25.3133 84.6623 24.9901 84.016 22.6204 83.6929C21.1124 83.4774 19.6043 82.7234 19.1735 82.0771C18.8503 81.4308 18.7426 80.0306 18.958 78.9535C19.1735 77.9841 20.0352 77.0146 20.6815 77.0146C21.4355 76.9069 22.8358 76.7992 23.6975 76.6915C24.8824 76.5838 25.3133 75.0758 25.3133 63.6581L21.7587 63.335C18.5272 63.1195 18.3117 62.7964 18.3117 59.3495C18.3117 55.6873 18.4195 55.5796 25.8519 56.1182V50.9479C25.8519 47.8242 26.3904 45.6699 27.1445 45.4545C27.8985 45.239 29.6219 45.1314 30.9145 45.2391C32.5662 45.3109 33.392 44.7005 33.392 43.4079C33.392 42.4385 34.3614 40.9305 35.5463 40.1765C36.8389 39.4225 37.7006 37.9145 37.5929 36.7296C37.4852 35.5448 37.4852 31.9902 37.5929 28.8665C37.7006 23.5885 37.9161 23.2654 40.3935 23.2654C42.871 23.2654 43.0864 23.5886 43.0864 28.6511C43.0864 32.9597 43.4096 34.0368 44.9176 34.0368C45.9948 34.1445 51.596 34.36 67.8612 35.1139V29.1897C67.8612 23.2654 67.8612 23.2654 71.0927 23.2654C74.2164 23.2654 74.3241 23.3731 74.3241 34.0368H78.0942C81.7565 34.0368 81.8643 33.929 81.8643 29.7282C81.8643 27.3585 82.1874 24.6657 82.6183 23.6963ZM905.462 22.9423C905.785 22.5114 907.185 22.1883 908.586 22.1883C910.094 22.1883 911.279 22.5114 911.279 22.9423C911.279 23.3731 910.525 24.7734 908.047 28.1125L906.431 25.9582C905.57 24.7734 905.139 23.3731 905.462 22.9423ZM33.8229 135.072C35.5463 134.642 35.8695 135.396 36.6235 144.982H45.2408L45.4562 139.812C45.6716 135.611 46.1025 134.749 47.6105 134.965C48.6877 135.18 49.9803 135.288 50.6266 135.288C51.1652 135.288 51.7037 137.442 51.7037 140.135C51.7037 144.874 51.7037 144.982 55.4738 144.982C59.2439 144.982 59.2439 144.874 59.4593 139.812C59.7825 134.857 59.8902 134.749 63.2294 134.426C66.784 134.211 66.784 134.211 67.3226 144.444L76.4785 144.982L77.017 134.749L93.713 134.211V144.982L97.6985 144.659C101.792 144.444 101.792 144.444 101.792 134.749L114.179 134.211L114.395 139.273C114.718 144.336 114.718 144.444 118.488 144.444C122.15 144.444 122.258 144.228 123.335 134.749L142.185 134.211V144.982H156.188V134.211H163.729V144.982H167.499C171.269 144.982 171.269 144.874 171.807 134.749L186.349 134.211L186.133 139.273C185.81 144.336 185.918 144.444 189.365 144.659C192.704 144.982 192.812 144.874 193.027 139.812C193.35 134.749 193.35 134.749 197.013 134.749C200.46 134.749 200.783 134.965 201.106 138.519C201.321 140.566 201.752 142.828 201.968 143.582C202.291 144.336 203.799 144.767 205.415 144.551C208.215 144.228 208.431 143.797 208.646 139.166C208.969 134.426 209.077 134.211 211.878 134.426C214.678 134.642 214.894 135.072 215.109 139.812C215.432 144.874 215.432 144.982 218.879 144.659C222.326 144.444 222.434 144.228 222.972 134.211H238.053V144.444H249.363L249.901 139.596C250.44 134.857 250.548 134.749 254.21 134.749C257.98 134.749 257.98 134.749 258.196 139.812C258.519 144.874 258.519 144.982 262.289 144.982C266.059 144.982 266.059 144.874 266.597 134.749L277.908 134.211L278.123 139.273C278.446 144.228 278.554 144.444 285.448 144.982V134.211L294.604 134.749V139.596C294.604 144.444 294.604 144.444 302.682 144.982V134.211L313.777 134.749L313.993 144.444H326.918L327.457 139.596C327.996 134.857 328.103 134.749 331.766 134.749C335.536 134.749 335.536 134.749 335.751 139.812C336.074 144.874 336.074 144.982 339.844 144.982C342.106 144.982 343.615 144.444 343.722 143.582C343.83 142.828 343.938 140.566 344.153 134.749L358.695 134.211V144.982H362.465C366.235 144.982 366.235 144.874 366.45 139.812C366.773 134.749 366.773 134.749 374.852 134.211L375.068 139.273C375.391 144.336 375.391 144.444 379.161 144.444C382.931 144.444 382.931 144.336 383.146 139.273C383.469 134.426 383.577 134.211 386.378 134.426C389.071 134.642 389.394 135.18 389.717 139.058C389.932 141.428 390.686 143.69 391.333 144.12C392.087 144.551 393.703 144.874 394.995 144.982C397.257 144.982 397.473 144.443 397.473 134.211L408.783 134.749L409.321 144.982H417.939L418.154 139.812C418.477 135.072 418.693 134.642 421.386 134.426C423.432 134.211 424.617 134.749 425.156 136.042C425.479 137.119 426.341 138.196 426.987 138.627C427.633 138.95 429.249 139.166 430.541 138.842C432.157 138.627 433.019 137.765 433.019 136.365C433.019 134.749 433.773 134.211 435.712 134.211C438.189 134.211 438.405 134.534 438.405 143.905H447.022V134.211H462.102V144.982H471.797L472.335 134.749H488.493L489.031 144.982L499.264 144.444V139.596C499.264 134.749 499.264 134.749 503.034 134.749C506.804 134.749 506.804 134.749 507.02 139.812C507.235 142.612 507.774 144.982 508.42 144.982C508.959 144.982 510.682 144.444 512.19 143.905C514.345 142.936 514.883 142.074 514.883 138.735C514.883 134.749 514.991 134.749 523.5 134.211L524.039 144.444H534.811L535.349 134.211H546.121V144.982L550.106 144.659C554.092 144.444 554.2 144.336 555.277 134.749L561.74 134.426C566.048 134.211 568.418 134.534 568.957 135.503C569.388 136.257 569.818 138.735 569.818 140.889C569.818 144.767 569.926 144.982 573.589 144.982C575.851 144.982 577.359 144.444 577.466 143.582C577.466 142.828 577.574 140.566 577.682 138.519C577.897 135.072 578.22 134.642 581.344 134.426C584.791 134.211 584.899 134.318 584.899 138.196C584.899 140.458 585.222 142.828 585.76 143.689C586.191 144.443 588.022 144.874 590.284 144.767C593.947 144.444 594.055 144.336 594.593 134.211H607.519V144.982L610.966 144.659C614.413 144.444 614.521 144.228 614.736 139.273C615.059 134.211 615.059 134.211 618.506 134.426C621.953 134.749 622.061 134.857 622.276 139.812C622.599 144.874 622.599 144.982 626.046 144.659C629.493 144.444 629.601 144.228 630.139 134.211H638.757V144.982H647.374V134.211L666.224 134.749L666.763 139.596C667.302 144.336 667.409 144.444 675.38 144.982L675.919 134.749L693.692 134.211L694.231 144.444H702.848L703.386 134.211L717.928 134.749L718.467 144.982H727.084L727.623 134.749H743.78L743.995 139.812C744.319 144.874 744.319 144.982 748.089 144.982C751.859 144.982 751.859 144.874 752.397 134.749L763.707 134.211L763.169 144.444H771.786L772.325 134.211H783.096V144.982H786.866C789.236 144.982 790.852 144.336 791.175 143.366C791.498 142.397 791.714 140.027 791.714 134.211H814.334V144.982H819.72C822.628 144.982 825.86 144.659 826.721 144.444C827.799 144.013 828.337 142.397 828.337 134.211L839.647 134.749L840.186 144.982H848.803L849.342 134.749L860.652 134.211V144.982L864.422 144.659C867.223 144.444 868.408 143.797 868.838 142.289C869.162 141.104 869.269 139.596 869.161 139.058C869.054 138.412 869.054 137.119 869.161 136.042C869.269 134.426 870.346 134.211 884.35 134.211V144.982H894.044L894.259 139.812C894.583 134.749 894.583 134.749 902.661 134.211L902.877 139.273C903.2 144.336 903.2 144.444 906.97 144.444C910.632 144.444 910.74 144.228 911.817 134.749L918.495 134.426C922.481 134.318 925.282 134.642 925.282 135.288C925.282 135.826 924.42 136.58 923.343 136.904C922.373 137.227 920.865 138.842 920.111 140.458C919.357 141.966 918.926 145.736 919.357 154.138L923.343 154.353C927.113 154.569 927.436 154.892 927.436 157.908C927.436 160.924 927.221 161.139 918.819 161.139L919.357 174.603H923.127C926.682 174.603 926.897 174.711 927.113 178.589C927.436 182.574 927.328 182.682 919.357 183.221L919.034 188.822C918.819 193.992 919.034 194.53 921.188 194.638C922.589 194.638 924.42 194.854 925.282 194.854C926.467 194.961 927.005 196.685 927.436 207.456H918.819V219.305H927.436V230.076L918.819 231.153L919.357 243.54L923.343 243.217C927.328 243.002 927.436 243.002 927.436 246.772C927.436 250.434 927.328 250.542 918.819 250.542L919.357 261.852L923.343 262.067C927.22 262.39 927.436 262.498 927.436 266.16C927.436 269.822 927.328 269.93 918.819 269.93V287.164L927.544 285.549L926.897 298.474L918.819 299.013L919.357 312.477H923.127C926.574 312.585 926.897 312.8 927.113 316.032C927.436 319.371 927.328 319.479 918.819 319.479L919.357 331.866L923.343 332.081C927.113 332.297 927.436 332.62 927.436 335.636C927.436 338.544 927.113 338.867 923.666 338.867C921.296 338.867 919.68 339.406 919.357 340.483C919.034 341.345 918.819 344.468 918.819 352.87H927.436V358.794C927.436 364.503 927.328 364.718 924.42 364.718C922.696 364.718 920.758 365.257 920.111 366.011C919.357 366.765 918.819 369.458 918.819 376.567H923.127C927.436 376.567 927.436 376.567 927.113 380.552C926.897 384.322 926.682 384.538 919.357 384.645L918.819 395.955H923.127C927.328 395.955 927.436 396.063 927.436 399.725C927.436 403.388 927.328 403.495 918.819 403.495L918.495 408.45C918.388 411.251 918.711 414.159 919.357 415.021C920.111 416.206 921.404 416.529 923.881 415.99C927.22 415.344 927.436 415.452 927.436 418.575C927.436 421.484 927.113 421.807 919.357 422.345L918.819 436.887L927.436 435.271V438.718C927.436 442.057 927.221 442.272 918.819 442.272L919.034 447.335C919.357 452.397 919.357 452.505 923.343 452.721C927.22 453.044 927.436 453.151 927.436 456.814C927.436 460.476 927.328 460.584 918.819 460.584V471.355L923.127 471.032C927.436 470.817 927.436 470.816 927.436 474.802C927.436 478.68 927.328 478.895 919.357 479.434L918.819 493.975H927.436V500.976C927.436 507.87 927.436 507.978 924.42 507.87C922.804 507.762 920.865 507.762 920.111 507.87C919.25 507.87 918.819 509.917 918.819 519.826H927.436V528.443H918.819V540.292H927.436V547.293C927.436 553.972 927.328 554.295 924.743 554.295C923.235 554.295 921.296 554.51 920.434 554.833C919.25 555.157 918.819 556.988 918.819 567.22H923.127C927.005 567.22 927.436 567.436 927.436 569.913C927.436 572.175 926.897 572.606 923.343 572.822C919.465 573.145 919.357 573.252 918.711 577.992C918.28 580.577 918.172 583.162 918.388 583.593C918.603 584.024 920.758 584.455 923.127 584.455C927.221 584.455 927.436 584.562 927.436 587.686C927.436 590.379 927.005 590.918 924.743 590.918C923.235 590.918 921.296 591.133 920.434 591.456C919.25 591.779 918.819 593.61 918.819 604.92L923.127 604.597C927.328 604.382 927.436 604.489 927.436 607.829C927.436 611.168 927.221 611.383 918.819 611.383V625.386H923.127C927.005 625.386 927.436 625.601 927.436 628.079C927.436 630.341 926.897 630.772 923.343 630.987C919.357 631.31 919.357 631.31 919.034 636.157C918.819 639.173 919.25 641.22 920.111 641.758C920.865 642.189 922.804 642.513 924.42 642.62C927.22 642.62 927.436 642.943 927.436 646.929C927.436 650.914 927.22 651.237 924.42 651.237C922.696 651.237 920.758 651.776 920.111 652.53C919.357 653.284 918.819 655.977 918.819 663.086H927.436L927.113 667.61C926.897 671.811 926.682 672.134 924.205 671.811C922.697 671.703 920.865 672.134 920.111 672.888C919.25 673.857 918.926 676.873 919.357 688.399L927.436 688.937V700.786H918.819V711.557H923.127C927.221 711.557 927.436 711.665 927.436 714.789C927.436 717.805 927.221 718.02 918.819 718.02L919.357 729.33L923.343 729.007C927.22 728.791 927.436 728.899 927.436 732.023C927.436 734.608 926.897 735.254 924.958 735.362C923.666 735.362 921.835 735.577 920.973 735.577C919.788 735.685 919.25 737.301 918.819 747.103H927.436V758.951L922.696 758.628C919.788 758.52 917.418 758.951 916.233 760.028C914.941 761.213 914.402 763.798 913.971 778.663L899.968 778.878L899.322 787.495L885.965 787.064V778.878H873.039L872.393 787.495L856.882 787.172L856.343 783.079C855.912 779.74 855.374 778.986 853.112 778.771C851.604 778.555 849.557 778.663 848.48 778.986C847.187 779.201 846.649 780.494 846.649 786.957H832.646L832.323 782.864C832.107 778.986 832 778.878 828.337 778.986C826.291 779.094 824.244 779.201 823.705 779.309C823.274 779.309 822.951 781.033 822.951 783.187C822.951 786.849 822.951 786.957 818.104 786.957C813.257 786.957 813.257 786.849 813.257 783.187C813.257 780.063 812.826 779.309 810.779 778.986C809.487 778.771 806.794 778.771 804.855 778.986C801.623 779.309 801.408 779.632 801.408 787.495L786.866 787.172L786.543 783.295C786.328 779.417 786.22 779.417 781.481 779.417C776.633 779.417 776.633 779.417 776.31 783.402C776.095 787.172 775.879 787.388 772.325 787.388C768.77 787.495 768.555 787.172 768.232 783.725C768.016 781.571 767.37 779.632 766.939 779.417C766.4 779.094 764.461 778.986 762.63 779.094C759.722 779.309 759.399 779.74 758.86 787.28L748.089 787.388L747.55 783.187C747.011 779.201 746.796 778.986 743.457 779.202C741.626 779.309 739.471 779.417 738.933 779.417C738.286 779.417 737.856 781.033 737.856 783.187C737.856 786.311 737.425 786.957 735.378 786.957C734.085 787.065 731.07 787.172 724.391 787.388L724.606 783.402C724.822 780.063 724.499 779.309 722.452 778.771C721.16 778.447 718.898 778.34 717.39 778.447C715.127 778.771 714.589 779.525 714.373 782.864C714.266 785.126 713.619 786.957 713.081 786.957C712.435 786.957 711.25 787.172 710.388 787.495C709.095 787.926 708.772 787.065 708.772 783.725C708.772 780.386 708.341 779.309 706.833 779.094C705.864 778.878 703.925 778.878 702.525 779.094C700.478 779.309 700.155 780.063 700.155 783.725C700.155 787.711 699.94 788.034 696.923 788.034C693.907 788.034 693.692 787.711 693.692 783.725C693.692 781.356 693.584 779.309 693.369 779.309C693.261 779.309 690.676 778.986 687.768 778.663C683.998 778.34 682.166 778.663 681.628 779.632C681.089 780.386 680.766 782.433 680.766 784.264C680.766 787.172 680.443 787.495 677.211 787.495C674.088 787.495 673.657 787.065 673.226 783.725C672.687 779.955 672.58 779.955 661.377 779.417L661.593 783.187C661.916 786.741 661.7 786.957 658.361 786.957C656.53 786.957 653.622 787.065 651.898 787.172C649.205 787.388 648.99 786.957 648.667 783.402C648.559 780.602 647.913 779.309 646.512 778.986C645.543 778.878 643.496 778.986 641.988 779.309C639.942 779.848 639.403 780.602 639.295 787.28L625.292 787.172L624.969 783.295C624.861 780.494 624.215 779.309 622.815 779.094C621.845 778.878 619.691 778.878 617.967 779.094C615.382 779.309 615.059 779.848 615.059 783.187C615.059 786.311 614.628 786.957 612.366 787.495C610.858 787.711 609.135 787.711 608.596 787.495C607.95 787.172 607.519 785.341 607.519 783.402C607.519 780.494 607.088 779.848 604.611 779.202C602.887 778.771 600.517 778.663 599.117 778.878C597.178 779.309 596.747 780.063 596.747 786.957L582.852 787.495L582.529 783.187C582.206 778.878 582.206 778.878 577.682 778.878C575.204 778.878 572.942 779.094 572.619 779.417C572.296 779.632 571.865 781.463 571.757 783.402C571.434 786.741 571.219 786.957 566.802 786.957C562.278 786.957 562.278 786.849 562.278 783.187C562.278 779.74 561.955 779.309 558.724 778.771C556.892 778.34 554.307 778.34 553.122 778.771C551.399 779.201 550.968 780.171 551.507 786.957H544.505C540.627 786.957 537.18 786.957 536.642 786.957C536.211 786.957 535.78 785.233 535.565 783.187C535.349 780.279 534.811 779.201 532.872 778.771C531.579 778.34 528.886 778.34 526.947 778.771C523.608 779.309 523.5 779.525 525.116 786.849L520.808 787.172C518.438 787.28 514.237 787.388 506.266 786.957L506.804 783.187C507.235 780.171 506.912 779.309 505.404 778.878C504.435 778.555 502.603 778.555 501.419 778.663C499.803 778.986 499.157 779.955 498.941 782.971C498.726 786.095 498.295 786.957 496.571 786.957C495.387 786.957 493.34 787.065 491.94 787.172C489.893 787.388 489.462 786.741 489.031 783.079C488.708 780.709 487.846 778.878 487.092 778.878C486.446 778.878 483.861 778.986 481.491 779.094C477.29 779.417 477.183 779.525 477.183 783.187C477.183 786.741 476.967 786.957 472.874 787.172C468.996 787.388 468.565 787.172 468.458 784.802C468.35 783.294 468.35 781.463 468.458 780.709C468.458 779.955 466.842 779.201 464.257 778.878C461.887 778.555 459.194 778.771 458.332 779.417C457.363 779.955 456.824 781.679 456.932 783.402C457.147 785.018 456.932 786.526 456.393 786.634C455.962 786.849 452.731 786.957 442.713 786.957L442.175 778.878H431.403L430.865 786.957H417.939L418.477 778.878H407.706L407.059 787.495L394.78 787.064V779.309L389.932 779.632C385.193 779.955 385.085 779.955 385.301 783.402C385.516 785.556 385.085 786.957 384.223 787.064C383.577 787.064 381.423 787.172 379.699 787.28C376.683 787.495 376.468 787.28 376.791 783.725C377.114 780.171 376.899 779.848 373.56 779.309C371.621 778.986 369.359 778.878 368.605 779.094C367.851 779.201 367.312 781.033 367.312 783.187C367.312 785.233 366.666 787.065 365.912 787.28C365.265 787.495 362.68 787.603 360.31 787.495C356.11 787.28 356.002 787.172 355.679 783.402C355.571 780.494 354.925 779.309 353.524 779.202C352.555 779.202 349.754 779.094 347.385 779.094C343.184 779.094 343.076 779.201 342.753 782.971C342.537 786.634 342.214 786.957 338.983 787.172C337.152 787.388 333.92 787.388 331.981 787.172C328.75 786.957 328.534 786.634 328.534 783.187C328.534 779.632 328.211 779.309 324.764 778.878C322.718 778.555 320.456 778.555 319.917 778.878C319.271 779.094 318.624 781.033 318.301 783.187C317.87 785.987 317.224 786.957 315.608 786.957C314.423 786.957 312.7 787.172 311.838 787.495C310.546 787.926 310.223 787.064 310.223 783.941C310.223 781.787 310.007 779.632 309.792 779.417C309.468 779.094 307.53 778.986 305.483 779.094C301.713 779.417 301.605 779.525 301.605 783.402C301.605 787.172 301.39 787.495 294.604 788.034L295.358 783.725C296.219 779.417 296.112 779.417 292.988 779.417C289.972 779.417 289.756 779.632 289.756 783.187C289.756 786.634 289.433 786.957 286.525 786.957C283.509 786.957 283.293 786.634 283.293 783.187C283.293 781.033 282.647 779.201 281.893 779.094C281.247 778.878 278.877 778.986 276.83 779.309C273.384 779.848 273.06 780.279 273.06 787.28H261.212L261.427 783.295C261.75 779.955 261.427 779.309 259.273 778.986C257.98 778.771 255.826 779.094 254.426 779.525C252.487 780.279 252.163 781.033 252.702 783.402C253.133 785.126 252.918 786.741 252.163 787.172C251.517 787.603 249.471 787.603 247.747 787.172C244.946 786.526 244.408 785.88 244.516 782.864C244.516 780.063 243.977 779.309 242.038 778.986C240.746 778.878 238.699 778.986 237.514 779.417C235.898 779.955 235.36 781.14 235.252 783.833C235.252 787.172 234.929 787.495 231.805 787.711C228.466 788.034 228.358 787.819 228.358 783.725C228.358 781.356 228.035 779.309 227.497 779.309C227.066 779.201 225.558 779.094 224.05 778.878C222.542 778.663 220.495 778.663 219.418 778.986C218.125 779.201 217.479 780.602 217.263 783.402C217.156 785.772 216.509 787.495 215.648 787.495C215.001 787.495 212.201 787.388 209.508 787.172C204.768 786.957 204.661 786.849 204.014 782.864C203.584 779.309 203.153 778.878 200.567 778.878C198.952 778.986 197.013 779.309 196.259 779.74C195.505 780.171 195.182 781.571 195.613 783.402C196.151 786.095 195.936 786.418 192.381 787.172C190.227 787.603 187.965 787.711 187.426 787.495C186.78 787.172 186.349 785.018 186.349 782.648C186.349 778.447 186.241 778.34 183.333 778.986C181.717 779.309 179.778 779.74 179.024 780.063C178.27 780.279 177.839 781.894 177.947 783.941C178.27 787.388 178.163 787.495 173.962 787.495C169.761 787.495 169.653 787.388 169.33 783.402C169.114 779.74 168.791 779.309 165.56 779.094C163.729 778.986 161.251 778.986 160.174 779.094C158.881 779.309 158.235 780.494 157.804 787.28L142.185 787.495V783.402C142.185 781.248 141.862 779.201 141.324 778.986C140.893 778.771 138.738 778.771 136.476 778.986C132.706 779.309 132.491 779.632 132.168 783.402C131.952 786.741 131.521 787.495 129.475 787.711C127.428 787.926 127.105 787.495 127.105 784.479C127.213 782.541 126.566 780.386 125.812 779.74C125.058 778.986 123.335 778.663 121.935 778.878C119.996 779.309 119.457 780.171 119.242 783.402C119.026 786.957 118.703 787.495 116.01 787.711C113.317 787.926 113.102 787.711 113.102 784.479C113.21 782.541 112.563 780.494 111.809 779.74C111.055 779.094 108.793 778.771 106.854 778.986C104.485 779.201 103.3 779.955 103.192 781.248C103.192 782.325 102.977 783.941 102.977 785.018C102.869 785.987 102.546 786.849 102.007 786.849C101.576 786.957 99.0989 786.957 96.406 786.957C91.6664 786.957 91.5587 786.849 91.2356 783.079C91.1279 781.033 90.697 779.309 90.1584 779.309C89.7275 779.417 87.4655 779.417 85.0957 779.417C80.8948 779.417 80.7871 779.525 80.2485 787.495H69.4769L69.1538 783.402C68.9383 779.525 68.8306 779.417 64.6297 779.417C62.2599 779.417 59.9979 779.524 59.4593 779.632C59.0285 779.848 58.7053 781.463 58.7053 783.295C58.7053 786.418 58.3822 786.741 55.1507 787.064C53.1041 787.28 51.1652 787.172 50.6266 786.957C50.088 786.634 49.5494 784.695 49.334 782.648C49.0108 778.878 49.0108 778.878 37.7006 778.34V774.031C37.7006 770.261 37.3775 769.723 35.2232 769.615C33.9306 769.507 31.9917 769.507 30.9145 769.615C29.6219 769.615 28.9756 768.645 28.5448 766.168C28.3293 764.229 27.2522 761.967 26.2827 761.105C25.2056 760.136 23.3744 759.49 22.1895 759.49C20.4661 759.49 19.8198 758.736 19.6043 756.474C19.3889 753.996 19.8198 753.458 22.2972 753.242C25.3133 753.027 25.3133 752.919 25.3133 737.947L22.2972 738.162C19.7121 738.378 19.3889 738.055 19.3889 735.254C19.3889 732.454 19.8198 731.915 22.2972 731.7C25.0979 731.484 25.3133 731.053 25.3133 726.637C25.3133 722.113 25.0979 721.682 22.2972 721.467C19.8198 721.251 19.3889 720.82 19.6043 718.235C19.8198 715.866 20.4661 715.219 22.8358 715.004C25.6364 714.788 25.8519 714.465 25.5287 710.695C25.3133 707.033 24.9901 706.602 21.7587 706.387C19.2812 706.171 18.4195 705.741 18.8503 704.556C19.1735 703.586 19.3889 701.971 19.3889 700.786C19.3889 699.062 20.1429 698.631 22.6204 698.631C25.7442 698.631 25.8519 698.416 25.5287 694C25.3133 689.799 25.0979 689.476 22.405 689.476C20.7892 689.476 19.3889 689.045 19.3889 688.614C19.3889 688.183 19.3889 686.137 19.3889 684.09C19.3889 681.182 19.7121 680.428 21.0046 680.859C21.8664 681.074 23.3744 681.074 24.2361 680.859C25.5287 680.428 25.8519 678.058 25.8519 656.623H22.0818C19.1735 656.623 18.3117 656.084 18.3117 654.684C18.3117 653.715 18.6349 651.237 19.0658 649.298C19.8198 646.39 20.3583 645.744 22.8358 645.744C25.7442 645.852 25.8519 645.636 25.5287 640.681C25.3133 635.726 25.2056 635.619 21.7587 635.296C18.5272 635.08 18.3117 634.865 18.3117 630.772C18.3117 626.679 18.5272 626.355 22.0818 625.925C25.8519 625.386 25.8519 625.278 25.8519 620C25.8519 614.615 25.7442 614.615 22.2972 614.291C19.0658 614.076 18.8503 613.753 18.5272 609.983C18.3117 606.105 18.4195 605.997 21.7587 605.674C25.2056 605.459 25.3133 605.351 25.3133 600.073C25.3133 594.903 25.0979 594.688 22.2972 594.364C19.6043 594.149 19.3889 593.718 19.3889 589.302C19.3889 585.316 19.7121 584.455 21.3278 584.455C22.405 584.455 23.8053 583.808 24.5593 583.054C25.3133 582.3 25.8519 579.392 25.8519 576.592C25.8519 571.637 25.7442 571.529 22.6204 571.529C20.7892 571.529 19.1735 571.098 18.958 570.667C18.7426 570.236 18.7426 568.298 18.958 566.359C19.2812 563.343 19.7121 562.912 22.6204 562.912C25.7442 562.912 25.8519 562.804 25.5287 557.742C25.3133 552.787 25.2056 552.679 21.7587 552.356C18.4195 552.141 18.3117 551.925 18.5272 548.047C18.8503 544.493 19.1735 543.954 22.0818 543.523C24.8824 542.985 25.2056 542.554 25.5287 538.353C25.8519 533.937 25.7442 533.829 22.6204 533.829C19.8198 533.829 19.3889 533.398 19.0658 530.49C18.958 528.659 19.0658 527.043 19.2812 526.72C19.4966 526.505 20.8969 526.289 22.2972 526.289C23.913 526.289 24.9901 525.427 25.421 523.812C25.7442 522.519 25.8519 519.934 25.6364 518.211C25.3133 515.41 24.7747 514.871 21.7587 514.656C18.5272 514.441 18.3117 514.118 18.5272 510.886C18.7426 507.978 19.2812 507.332 22.0818 506.901C25.0979 506.362 25.3133 506.039 25.3133 501.515C25.3133 496.776 25.2056 496.668 21.7587 496.345C18.4195 496.129 18.3117 495.914 18.3117 491.282C18.3117 486.543 18.4195 486.435 25.8519 485.358V479.11C25.8519 473.078 25.7442 472.863 22.6204 472.109C19.9275 471.463 19.3889 470.817 19.6043 468.339C19.8198 466.185 20.5738 465.323 22.2972 465.108C24.4516 464.892 24.7747 464.246 24.7747 459.507C24.7747 454.444 24.5593 454.121 22.0818 454.121C19.9275 454.121 19.3889 453.582 19.3889 451.428C19.3889 449.274 19.9275 448.735 22.0818 448.735C24.667 448.735 24.7747 448.412 24.7747 442.811C24.7747 437.21 24.667 436.887 22.0818 436.887C20.1429 436.887 19.3889 436.24 19.3889 434.732C19.3889 433.296 20.4661 432.219 22.6204 431.501C24.3438 430.855 25.8519 429.993 25.8519 429.562C25.8519 429.131 25.6364 427.192 25.3133 425.254C24.8824 422.238 24.4516 421.807 22.0818 422.345C19.6043 422.776 19.3889 422.561 19.3889 419.114C19.3889 416.601 19.8198 415.452 20.6815 415.667C21.4355 415.883 22.9435 415.667 23.913 415.129C25.3133 414.482 25.8519 412.974 25.8519 409.42C25.8519 404.68 25.7442 404.573 22.6204 404.573C19.6043 404.573 19.3889 404.249 19.3889 400.264C19.3889 396.279 19.6043 395.848 22.6204 395.417C25.7442 394.878 25.8519 394.663 25.5287 389.708C25.3133 384.969 25.0979 384.538 22.2972 384.322C19.7121 384.107 19.3889 383.676 19.3889 380.337C19.3889 376.782 19.6043 376.567 22.6204 376.567C25.7442 376.567 25.8519 376.351 25.8519 371.72C25.8519 368.596 25.3133 366.765 24.4516 366.765C23.8053 366.657 22.5127 366.55 21.6509 366.442C20.7892 366.334 19.7121 365.257 19.2812 363.857C18.4195 361.702 18.7426 361.379 21.7587 360.625C25.0979 359.764 25.3133 359.333 25.5287 354.701C25.8519 349.746 25.7442 349.638 22.6204 349.638C19.8198 349.638 19.3889 349.208 19.3889 346.622C19.3889 344.36 20.1429 343.391 25.8519 341.021L25.3133 323.249L21.7587 322.925C18.3117 322.71 18.3117 322.71 18.3117 316.786C18.3117 312.477 18.7426 310.646 19.9275 310.323C20.7892 310 22.2972 310.215 23.159 310.861C24.3438 311.615 24.8824 311.508 25.3133 310.323C25.6364 309.353 25.8519 306.768 25.8519 304.399C25.8519 302.029 25.2056 299.659 24.4516 299.228C23.8053 298.798 22.2972 298.474 21.3278 298.474C20.2506 298.474 19.3889 298.043 19.3889 297.613C19.3889 297.182 19.3889 295.458 19.3889 293.843C19.2812 291.473 19.9275 290.719 22.6204 290.073C25.7442 289.319 25.8519 289.103 25.5287 283.61C25.3133 278.224 25.0979 278.009 22.0818 277.47C19.1735 276.932 18.8503 276.501 18.8503 273.162C18.8503 269.607 19.0658 269.392 22.405 269.392C25.9596 269.392 25.9596 269.284 25.6364 264.544C25.3133 259.913 25.0979 259.697 22.0818 259.697C19.0658 259.697 18.8503 259.374 18.958 255.927C19.0658 253.773 19.1735 251.511 19.2812 250.757C19.2812 250.003 20.5738 249.572 22.2972 249.68C25.2056 250.003 25.3133 249.788 25.5287 244.294C25.8519 238.693 25.8519 238.693 22.6204 238.693C19.7121 238.693 19.3889 238.262 19.3889 235.462C19.3889 232.553 19.7121 232.23 22.6204 232.23C25.6364 232.23 25.8519 232.015 25.8519 227.599C25.8519 225.121 25.3133 222.428 24.5593 221.674C23.8053 220.92 22.0818 220.274 20.6815 220.382C19.1735 220.382 18.3117 219.736 18.3117 218.443C18.3117 217.474 18.6349 214.996 19.0658 213.057C19.7121 210.472 20.5738 209.503 22.6204 209.287C25.3133 209.072 25.3133 208.964 25.3133 198.3C25.3133 187.637 25.3133 187.529 22.6204 187.098C21.1124 186.883 19.7121 186.344 19.3889 185.806C19.0658 185.375 18.958 183.544 19.1735 181.928C19.3889 179.558 20.2506 178.697 22.6204 178.05C25.2056 177.404 25.8519 176.65 25.8519 174.28C25.9596 172.665 25.2056 170.726 24.2361 169.972C23.3744 169.218 21.8664 168.895 21.0046 169.218C19.7121 169.541 19.3889 168.787 19.3889 165.986C19.3889 163.832 19.2812 161.785 19.0658 161.355C18.958 160.924 20.2506 160.385 21.9741 160.062C23.6975 159.739 25.0979 159.093 24.9901 158.662C24.8824 158.231 24.7747 156.184 24.7747 154.138C24.7747 150.799 24.4516 150.368 22.0818 150.368C19.9275 150.368 19.3889 149.829 19.3889 147.675C19.3889 145.413 19.9275 144.982 22.6204 144.982C25.0979 144.982 25.8519 144.444 25.8519 142.828C25.8519 141.535 26.7136 140.458 28.0062 140.135C29.1911 139.812 30.5914 139.812 31.2377 140.135C31.7763 140.35 32.2071 139.489 31.9917 137.981C31.884 136.15 32.4226 135.288 33.8229 135.072Z" fill="#F73029"/>
<path fill-rule="evenodd" clip-rule="evenodd" d="M117.412 0.430847C120.644 0.646275 125.491 0.646275 128.184 0.430847C130.877 0.215419 128.184 0 122.259 0C116.335 0 114.181 0.215419 117.412 0.430847ZM326.382 0.430847C328.428 0.646275 332.09 0.646275 334.46 0.430847C336.83 0.107705 335.106 0 330.69 0C326.274 0 324.335 0.107705 326.382 0.430847ZM19.3905 17.665C21.4371 17.8805 25.0995 17.8805 27.4692 17.665C29.839 17.3419 28.1155 17.2343 23.6992 17.2343C19.2828 17.2343 17.3439 17.3419 19.3905 17.665ZM191.736 23.0507C196.691 23.2661 205.416 23.2661 211.125 23.0507C216.726 22.8353 212.633 22.7276 201.969 22.7276C191.305 22.7276 186.674 22.8353 191.736 23.0507ZM278.448 23.0507C280.171 23.2661 283.618 23.2661 285.988 23.0507C288.358 22.8353 286.85 22.6199 282.756 22.6199C278.556 22.6199 276.617 22.8353 278.448 23.0507ZM322.396 23.0507L331.767 23.4816C332.306 30.5907 332.306 30.5907 332.306 26.8207V22.8354L312.917 22.6199L322.396 23.0507ZM360.527 23.0507L366.236 23.374L366.883 34.6839L367.314 22.2968L354.926 22.7276L360.527 23.0507ZM389.072 27.8979L389.18 33.6068C389.826 23.5894 390.042 23.374 393.058 23.374C396.182 23.374 396.289 23.5894 396.612 28.7596L396.828 34.1453V22.8354L388.965 22.189L389.072 27.8979ZM412.447 23.0507C415.678 23.2661 420.525 23.2661 423.218 23.0507C425.911 22.8353 423.218 22.7276 417.294 22.7276C411.369 22.7276 409.215 22.8353 412.447 23.0507ZM453.594 28.0056L453.81 33.6068L454.456 23.374L466.843 22.7276L453.379 22.2968L453.594 28.0056ZM489.464 23.1585C491.833 23.3739 496.034 23.3739 498.62 23.1585C501.313 22.9431 499.374 22.7276 494.311 22.7276C489.356 22.7276 487.094 22.9431 489.464 23.1585ZM518.547 23.1585C520.378 23.3739 523.717 23.3739 526.087 23.1585C528.457 22.9431 527.057 22.7276 522.856 22.7276C518.762 22.7276 516.824 22.9431 518.547 23.1585ZM560.88 23.0507C564.219 23.3739 564.434 23.5893 564.65 28.8673L564.865 34.253V22.9431C557.54 22.7276 557.54 22.7276 560.88 23.0507ZM582.1 23.1585C583.931 23.3739 587.27 23.3739 589.64 23.1585C592.009 22.9431 590.609 22.7276 586.408 22.7276C582.315 22.7276 580.376 22.9431 582.1 23.1585ZM636.173 23.1585C635.85 23.5894 639.62 23.8048 644.467 23.6971C649.315 23.4817 655.131 23.2661 657.501 23.0507C659.871 22.8353 656.208 22.6199 649.207 22.5121C642.313 22.4044 636.389 22.7277 636.173 23.1585ZM677.213 23.0507L682.814 23.4816L683.353 34.7916C690.785 34.8993 690.785 34.8993 687.446 34.5761C683.999 34.253 683.891 34.1453 683.891 28.3287V22.4045L671.504 22.7276L677.213 23.0507ZM696.925 23.1585C699.618 23.3739 703.496 23.3739 705.542 23.1585C707.589 22.8354 705.435 22.7276 700.695 22.7276C695.956 22.7276 694.232 22.9431 696.925 23.1585ZM720.084 23.0507C719.545 23.4816 719.222 26.0667 719.33 28.975C719.545 33.8221 719.33 34.253 716.852 34.4684C714.59 34.6839 714.59 34.6839 717.068 34.6839C719.976 34.6839 720.084 34.4685 720.299 29.0828L720.622 23.374L733.01 22.7276C723.639 22.4045 720.623 22.6199 720.084 23.0507ZM769.633 23.1585C772.434 23.4816 772.973 24.1279 773.403 27.2516L773.942 30.9139C773.942 23.0508 773.834 22.8353 770.172 22.7276C766.94 22.7276 766.833 22.7277 769.633 23.1585ZM788.591 23.1585L794.408 23.4816L795.701 32.5296L795.485 22.8354L782.667 22.7276L788.591 23.1585ZM812.181 23.1585C814.336 23.3739 817.89 23.3739 820.26 23.1585C822.63 22.9431 821.014 22.7276 816.49 22.7276C812.074 22.7276 810.135 22.9431 812.181 23.1585ZM835.017 28.5442L835.232 34.7916C835.879 23.5893 835.987 23.3739 839.433 23.0507C842.773 22.7276 842.773 22.7276 838.895 22.5121L834.802 22.4045L835.017 28.5442ZM850.42 23.6971C850.097 24.3434 849.99 26.9285 850.205 29.2982C850.636 33.4991 850.636 33.499 850.851 28.5442L851.067 23.374L861.3 22.7276C852.898 22.4045 850.744 22.8354 850.42 23.6971ZM226.313 34.8993C228.898 35.1147 232.776 35.1147 234.93 34.8993C236.977 34.6839 234.823 34.4684 230.083 34.4684C225.344 34.5762 223.62 34.6839 226.313 34.8993ZM899.539 39.2078C902.124 39.4233 906.002 39.4233 908.156 39.2078C910.203 38.9924 908.049 38.777 903.309 38.777C898.57 38.8847 896.846 38.9924 899.539 39.2078ZM21.4371 63.8743C24.7763 64.3052 24.884 64.4129 24.884 70.2295C24.884 73.9995 24.3455 76.3692 23.4837 76.6923C22.7297 77.0155 22.8374 77.1231 23.8069 76.9077C24.9918 76.5846 25.4226 74.9688 25.4226 70.1217V63.7667C18.2056 63.5512 18.2056 63.5512 21.4371 63.8743ZM67.3242 139.166L67.4319 144.552L76.0492 144.767C67.9705 144.013 67.9705 143.906 67.5396 138.951L67.2165 133.781L67.3242 139.166ZM375.392 139.166C375.5 144.337 375.608 144.552 378.732 144.875C380.455 145.091 382.286 144.767 382.609 144.337C383.04 143.906 381.748 143.583 379.701 143.798C376.039 144.013 376.039 144.013 375.608 138.951L375.285 133.781L375.392 139.166ZM524.041 139.166L524.148 144.552H534.92L535.135 133.781L534.381 144.013H524.687L523.933 133.781L524.041 139.166ZM771.465 138.951C771.357 144.013 771.249 144.013 767.587 144.013C765.109 144.013 763.601 143.475 763.278 142.398C762.919 141.321 762.811 141.428 762.955 142.721C763.17 144.013 764.355 144.66 767.264 144.875C769.741 144.983 771.572 144.552 771.895 143.798C772.219 143.044 772.326 140.459 772.111 138.089C771.68 133.888 771.68 133.888 771.465 138.951ZM910.849 135.073C910.311 135.396 909.987 137.658 910.095 139.92C910.203 143.798 910.095 144.013 907.079 144.337C904.063 144.552 904.063 144.552 907.295 144.552C910.634 144.552 910.849 144.337 911.388 139.49C911.711 136.581 911.819 134.319 911.819 134.319C911.711 134.319 911.28 134.642 910.849 135.073ZM114.719 139.92C114.827 144.444 114.827 144.552 118.597 144.552C122.152 144.552 122.367 144.444 122.367 140.567C122.367 136.581 122.259 136.581 122.044 140.244C121.829 143.69 121.505 144.013 118.597 144.013C115.581 144.013 115.258 143.69 114.935 139.705L114.612 135.396L114.719 139.92ZM593.733 139.382C593.625 143.906 593.518 144.013 589.532 144.337L585.547 144.66C591.902 144.983 593.841 144.444 594.164 143.69C594.487 142.936 594.595 140.674 594.379 138.52C593.948 135.073 593.948 135.073 593.733 139.382ZM702.526 139.382C702.419 143.906 702.311 144.013 698.325 144.337L694.34 144.66C700.695 144.983 702.634 144.444 702.957 143.69C703.28 142.936 703.388 140.674 703.173 138.52C702.742 135.073 702.742 135.073 702.526 139.382ZM313.994 140.136L314.102 144.444C323.258 144.983 326.274 144.66 326.705 144.229C327.135 143.798 324.55 143.583 320.996 143.69L314.64 143.906L313.779 135.827L313.994 140.136ZM24.884 199.702C24.6686 205.087 24.7763 209.18 25.2072 208.857C25.6381 208.426 25.9612 203.902 25.7458 198.84L25.4226 189.684L24.884 199.702ZM24.884 226.953C24.884 230.615 24.5609 231.369 22.5143 231.693C20.4677 232.016 20.5754 232.123 23.0529 232.231C25.8535 232.339 25.9612 232.123 25.9612 227.492C25.9612 224.907 25.7458 222.645 25.4226 222.645C25.2072 222.645 24.884 224.583 24.884 226.953ZM24.6686 244.187C24.884 248.281 24.5609 249.789 23.2683 250.112C22.2629 250.471 22.3707 250.578 23.5914 250.435C25.0995 250.219 25.5303 248.927 25.7458 244.511C25.9612 241.387 25.6381 238.802 25.2072 238.802C24.7763 238.802 24.5609 241.279 24.6686 244.187ZM19.0674 260.668C19.3905 261.098 20.7908 261.206 22.1911 260.883C24.7763 260.452 24.9918 260.775 25.3149 264.976L25.6381 269.5C25.4226 260.021 25.3149 259.806 22.0834 259.806C20.2522 259.806 18.8519 260.237 19.0674 260.668ZM24.3455 332.513C24.3455 337.791 24.7763 341.884 25.2072 341.561C25.6381 341.345 26.0689 337.36 26.0689 332.62C26.1766 327.881 25.8535 323.896 25.3149 323.573C24.7763 323.249 24.3455 327.343 24.3455 332.513ZM18.9597 396.387C18.6365 397.141 18.5288 399.403 18.6365 401.45C18.8519 403.927 19.6059 405.327 20.5754 405.327C21.5448 405.435 21.6526 405.327 20.8985 405.112C20.1445 404.897 19.4982 402.958 19.4982 400.372C19.4982 397.141 20.0368 395.956 21.4371 395.741C23.1606 395.31 23.1606 395.31 21.4371 395.202C20.36 395.095 19.2828 395.633 18.9597 396.387ZM17.8825 493.33C17.8825 496.453 18.3134 496.884 21.4371 497.1C24.884 497.315 24.884 497.423 24.6686 502.162C24.5609 504.747 24.7763 506.578 25.2072 506.148C25.7458 505.824 25.9612 503.455 25.7458 501.085C25.5303 497.1 25.2072 496.776 21.9757 496.561C18.9597 496.346 18.4211 495.807 18.0979 493.006C17.7748 489.99 17.7748 489.99 17.8825 493.33ZM17.6671 551.172C17.8825 552.141 19.6059 553.003 21.5448 553.111C24.884 553.326 24.884 553.434 24.6686 558.173C24.5609 560.866 24.7763 563.021 25.2072 563.021C25.6381 563.021 25.8535 560.759 25.7458 557.958C25.5303 553.111 25.3149 552.788 22.1911 552.465C20.4677 552.249 18.6365 551.495 18.0979 550.849C17.5234 549.987 17.3798 550.095 17.6671 551.172ZM18.9597 584.886C18.6365 585.64 18.5288 588.118 18.6365 590.488C18.8519 593.396 19.4982 594.904 20.5754 594.904C21.5448 595.011 21.6526 594.904 20.8985 594.688C19.965 594.401 19.6059 592.462 19.8214 588.872C19.9291 585.964 19.9291 583.486 19.8214 583.486C19.6059 583.486 19.2828 584.132 18.9597 584.886ZM24.7763 619.57C24.3455 622.586 24.2377 625.279 24.4532 625.495C24.7763 625.818 25.2072 625.818 25.5303 625.495C25.7458 625.279 25.9612 622.586 25.7458 619.57L25.4226 614.185L24.7763 619.57ZM926.36 624.956C927.007 625.279 927.653 626.787 927.653 628.187C927.653 630.449 927.114 630.988 924.206 631.311C920.759 631.634 920.759 631.634 924.421 631.526C927.868 631.526 928.192 631.203 928.192 628.295C928.192 626.356 927.545 625.064 926.576 624.848C925.714 624.633 925.606 624.741 926.36 624.956ZM22.622 635.943C24.6686 636.266 25.0995 637.128 25.4226 641.436L25.7458 646.499C25.5303 636.158 25.3149 635.727 22.8374 635.62C20.6831 635.62 20.5754 635.62 22.622 635.943ZM24.7763 665.133C24.884 669.765 25.2072 675.151 25.4226 677.197C25.5303 679.351 25.7458 675.582 25.8535 668.903C25.9612 662.225 25.7458 656.732 25.3149 656.732C24.7763 656.732 24.5609 660.502 24.7763 665.133ZM578.437 779.202C581.561 779.525 581.884 779.956 582.207 783.619L582.638 787.604C582.423 779.202 582.315 778.987 578.76 778.879C575.206 778.771 575.206 778.771 578.437 779.202ZM881.12 779.31C884.89 779.633 885.644 780.064 885.859 782.326C886.182 784.588 886.182 784.48 886.182 782.003C886.182 779.202 885.859 778.987 881.443 778.879L876.703 778.771L881.12 779.31ZM812.828 783.403L812.935 787.712C821.122 787.712 823.599 787.281 823.707 786.635C823.815 786.096 823.707 785.988 823.491 786.419C823.276 786.85 821.014 787.173 818.321 787.173C813.474 787.173 813.474 787.173 813.043 783.188L812.612 779.094L812.828 783.403ZM846.974 783.403V787.173C835.448 786.85 832.216 787.065 832.54 787.496C832.755 787.927 836.31 788.25 840.511 788.25H848.051C848.051 781.572 847.728 779.633 847.512 779.633C847.189 779.633 846.974 781.357 846.974 783.403ZM204.231 785.019C204.447 787.496 204.878 787.819 209.833 787.819L215.218 787.927C205.739 787.281 204.878 786.85 204.555 784.803C204.124 782.757 204.124 782.865 204.231 785.019ZM540.521 788.035C542.245 788.25 545.692 788.25 548.061 788.035C550.431 787.819 548.923 787.604 544.83 787.604C540.629 787.604 538.69 787.712 540.521 788.035Z" fill="#ED6853" fill-opacity="0.53"/>
<path d="M60.3242 95.4342V74.9686V54.5029H101.256V95.4342H60.3242Z" fill="#F73029"/>
<path d="M129.263 95.4342V74.9686V54.5029H170.087L169.656 94.8956L129.263 95.4342Z" fill="#F73029"/>
<path d="M199.278 95.4342V74.9686V54.5029H239.133V95.4342H199.278Z" fill="#F73029"/>
<path d="M834.265 153.6C830.495 153.6 830.495 153.6 830.495 148.753C830.495 143.906 830.495 143.905 834.265 143.905C837.712 143.905 838.035 144.229 838.358 147.46C838.573 149.291 838.573 151.553 838.358 152.307C838.143 153.061 836.419 153.6 834.265 153.6Z" fill="#F73029"/>
<path d="M86.1761 208.534V203.148V197.762H383.473V208.534H395.86V514.98H384.011L383.796 525.751L86.1761 526.29V515.518H73.2502V208.534H86.1761Z" fill="#F73029"/>
<path d="M462.536 236.324C462.859 234.924 463.075 228.138 463.075 221.244L463.183 208.534H863.887V238.694H462.105L462.536 236.324Z" fill="#F73029"/>
<path d="M462.752 302.891C462.859 300.414 463.075 293.843 463.075 288.027L463.183 277.471L863.887 277.578V307.631L462.644 307.2L462.752 302.891Z" fill="#F73029"/>
<path d="M498.837 425.47C499.16 418.468 499.268 400.803 498.944 386.046L498.406 359.441H527.812V436.995H540.738V424.069H566.59V447.766H551.51V463.923H536.43L536.968 477.926H523.504L522.965 493.545L506.269 494.083V477.926H492.266V463.923H479.34L478.801 448.305L463.183 447.766V424.069L473.954 423.746C479.879 423.638 485.264 423.531 486.018 423.531C486.988 423.531 487.419 425.9 487.957 438.072H498.19L498.837 425.47Z" fill="#F73029"/>
<path d="M723.209 409.42L723.102 387.123L722.994 364.719H749.6L749.061 409.42L764.68 409.959V426.116H782.992V436.887H814.229V459.507H782.992V472.433H764.68V488.59H749.6V531.675H723.209L722.994 517.996C722.886 510.456 722.779 500.762 722.671 488.59L708.129 488.698V472.971L689.279 472.433L689.71 460.046L659.118 459.507V436.887H690.356V426.116H708.668L708.129 410.066L723.209 409.42Z" fill="#F73029"/>
<path d="M439.377 542.555V531.245V519.935L588.564 520.473V542.016L439.377 542.555Z" fill="#F73029"/>
<path d="M443.686 728.9L443.794 662.656V596.304L467.707 596.95L467.384 614.723H484.618V631.957H500.776V647.037H516.933L517.472 662.656L534.168 663.194L534.06 667.18C534.06 669.442 534.06 672.888 534.168 678.274H551.402V696.585H516.933V711.665H534.168V742.902H498.621V728.9L483.002 728.361V711.665H467.384V728.9H443.686Z" fill="#F73029"/>
<path fill-rule="evenodd" clip-rule="evenodd" d="M59.6758 73.8916C59.6758 84.8784 59.8912 89.187 59.9989 83.5858C60.2144 77.9847 60.2144 69.0445 59.9989 63.6588C59.8912 58.2731 59.6758 62.9048 59.6758 73.8916ZM198.63 74.4301C198.63 85.7401 198.845 90.0487 198.953 84.1244C199.168 78.2002 199.168 69.0445 198.953 63.6588C198.845 58.2731 198.63 63.1202 198.63 74.4301ZM239.562 75.5073C239.562 83.8013 239.777 86.925 239.885 82.5087C240.1 78.0924 240.1 71.3064 239.885 67.4287C239.669 63.551 239.562 67.2133 239.562 75.5073ZM829.846 144.229C829.523 144.875 829.523 147.46 829.738 149.83C830.169 154.031 830.169 154.031 830.277 149.076C830.492 144.336 830.708 143.906 833.508 143.475L836.417 143.152C831.785 142.936 830.169 143.475 829.846 144.229ZM462.319 221.244L462.534 234.924L463.18 208.534L864.423 207.995L462.103 207.457L462.319 221.244ZM395.858 292.658C395.858 337.36 395.966 355.563 396.073 333.051C396.289 310.431 396.289 273.916 396.073 251.727C395.966 229.43 395.858 247.85 395.858 292.658ZM561.741 239.556C616.784 239.663 707.481 239.663 763.17 239.556C818.859 239.448 773.726 239.232 662.994 239.232C552.154 239.232 506.59 239.448 561.741 239.556ZM462.642 277.902C462.319 278.656 462.211 283.826 462.319 289.427L462.642 299.66C463.504 281.672 463.611 276.394 463.396 276.394C463.288 276.394 462.857 277.04 462.642 277.902ZM528.241 400.911C528.241 421.053 528.456 429.024 528.564 418.684C528.78 408.235 528.78 391.755 528.564 382.061C528.456 372.259 528.241 380.661 528.241 400.911ZM722.992 391.432L722.776 408.989L707.157 409.636C720.299 409.959 722.884 409.636 723.315 408.666C723.638 407.912 723.746 399.834 723.53 390.678L723.207 373.982L722.992 391.432ZM395.75 397.572C395.75 404.035 395.858 406.512 396.073 402.957C396.289 399.403 396.289 394.125 396.073 391.109C395.858 388.201 395.75 391.109 395.75 397.572ZM749.167 398.864V409.42C760.908 409.959 764.678 410.605 765.109 411.359C765.755 412.221 765.935 412.113 765.647 411.036C765.216 409.851 763.278 409.313 757.461 409.205L749.705 408.882L749.059 388.416L749.167 398.864ZM499.158 409.851C499.158 414.914 499.373 416.853 499.588 414.16C499.804 411.575 499.804 407.374 499.588 405.004C499.373 402.634 499.158 404.896 499.158 409.851ZM707.804 417.93V424.931L691.108 425.577L708.881 426.008C708.881 414.375 708.558 410.928 708.342 410.928C708.019 410.928 707.804 414.16 707.804 417.93ZM765.001 423.1L764.893 426.008L782.666 425.577C766.509 425.039 765.863 424.823 765.54 422.561C765.216 420.515 765.109 420.623 765.001 423.1ZM462.642 424.285C462.426 425.039 462.319 430.748 462.426 436.887L462.75 448.09L477.83 448.305L463.288 447.551V423.854L485.37 423.315C465.873 422.885 463.073 423.208 462.642 424.285ZM545.691 423.639C548.599 423.854 553.016 423.854 555.385 423.639C557.755 423.423 555.278 423.208 550 423.208C544.614 423.208 542.675 423.423 545.691 423.639ZM689.492 430.855V435.702L658.793 436.349L690.569 436.78C690.569 428.486 690.246 426.008 690.031 426.008C689.707 426.008 689.492 428.27 689.492 430.855ZM567.019 437.318C567.019 442.058 567.234 443.781 567.45 441.088C567.665 438.503 567.665 434.625 567.45 432.471C567.234 430.424 567.019 432.579 567.019 437.318ZM788.591 436.564C791.822 436.78 796.67 436.78 799.362 436.564C801.948 436.349 799.362 436.133 793.438 436.133C787.514 436.133 785.252 436.349 788.591 436.564ZM698.325 473.079L707.804 473.402L708.45 486.867L708.342 472.864L688.953 472.756L698.325 473.079ZM769.633 473.187C772.649 473.402 776.957 473.402 779.327 473.187C781.697 472.972 779.327 472.756 773.941 472.756C768.663 472.756 766.724 472.972 769.633 473.187ZM494.957 478.573C496.788 478.788 500.127 478.788 502.497 478.573C504.867 478.249 503.466 478.142 499.265 478.142C495.172 478.142 493.233 478.249 494.957 478.573ZM526.194 478.573C528.026 478.788 531.365 478.788 533.734 478.573C536.104 478.249 534.704 478.142 530.503 478.142C526.41 478.142 524.471 478.249 526.194 478.573ZM752.398 489.344C754.229 489.56 757.569 489.56 759.938 489.344C762.308 489.021 760.908 488.913 756.707 488.913C752.614 488.913 750.675 489.021 752.398 489.344ZM438.837 536.954L438.944 542.878H584.9L439.483 542.339L438.729 531.029L438.837 536.954ZM728.701 532.43C732.255 532.645 738.287 532.645 742.165 532.43C746.043 532.214 743.135 531.999 735.702 531.999C728.27 531.999 725.146 532.214 728.701 532.43ZM467.92 606.429C467.92 611.168 468.028 612.892 468.243 610.199C468.566 607.614 468.458 603.736 468.243 601.582C468.028 599.535 467.812 601.689 467.92 606.429ZM489.032 631.526C491.725 631.742 495.603 631.742 497.65 631.526C499.696 631.203 497.542 631.095 492.802 631.095C488.063 631.095 486.339 631.311 489.032 631.526ZM517.038 654.254C517.469 661.04 517.9 662.548 519.516 662.763C520.737 662.907 520.809 662.799 519.731 662.44C518.547 662.009 518.116 660.178 518.223 654.469C518.331 650.376 517.9 646.714 517.469 646.499C516.931 646.175 516.715 649.73 517.038 654.254ZM538.043 677.843C540.413 678.059 544.506 678.059 547.199 677.843C549.892 677.628 547.953 677.412 542.89 677.412C537.828 677.412 535.673 677.628 538.043 677.843ZM510.576 743.549C514.453 743.764 521.024 743.764 525.117 743.549C529.318 743.333 526.087 743.118 518.116 743.118C510.145 743.118 506.698 743.333 510.576 743.549Z" fill="#ED6853" fill-opacity="0.53"/>
</svg>
