<svg width="2659" height="2560" viewBox="0 0 2659 2560" fill="none" xmlns="http://www.w3.org/2000/svg">
<path fill-rule="evenodd" clip-rule="evenodd" d="M922.953 0H1732.84V106.496H1964.3L1963.07 142.131C1962.25 162.202 1962.66 184.32 1966.34 204.8H2093.34V299.008L2214.19 301.056L2216.23 393.216L2227.7 393.626C2233.85 393.626 2261.3 393.626 2339.13 393.216V487.424L2441.95 489.472L2441.54 679.936L2550.1 681.984L2551.74 899.072L2658.66 901.12V1667.07H2552.15V1880.06H2445.64V2080.77H2341.18L2342 2127.87C2342.82 2153.68 2342 2175.39 2339.95 2175.39C2338.31 2175.8 2310.45 2176.2 2219.1 2177.02L2219.92 2221.26C2220.33 2253.62 2219.1 2265.09 2215 2265.5C2212.55 2265.91 2184.28 2266.32 2095.39 2267.14V2361.34L1966.34 2363.39V2457.6L1734.89 2459.65L1732.84 2560H927.869L925.001 2544.84C923.362 2536.24 921.724 2513.31 921.724 2457.6H688.22V2363.39H561.227V2265.09L502.647 2265.5C470.694 2265.5 442.018 2265.5 439.15 2265.5C435.463 2265.09 434.234 2253.21 434.234 2174.98H315.434L315.025 2153.68C314.615 2141.8 314.615 2120.5 315.434 2080.77H262.179C222.443 2080.77 208.924 2079.54 208.924 2075.85C208.514 2072.99 208.924 2027.11 209.334 1878.02L104.462 1882.11L103.233 1669.12L0 1671.17V899.072H104.462V679.936H208.924L208.514 489.472L313.796 485.376L315.025 395.264L438.331 397.312V299.008H561.227L563.276 203.981L688.22 204.8V106.496L923.772 104.448L922.953 0ZM1046.67 308.019L950.4 307.2V405.504L850.854 407.552L852.082 499.712H766.055V716.8H675.931L676.75 1030.14L594 1032.19V1544.19H680.027V1855.49L764.007 1857.54V2070.53H850.034C850.444 2118.04 850.854 2139.75 851.263 2149.17L852.082 2166.78C920.495 2166.37 942.616 2166.37 945.074 2166.37C949.171 2166.78 950.4 2179.07 950.4 2213.89V2260.99L1045.03 2263.04L1046.67 2357.25L1609.94 2359.3V2260.99H1710.31C1708.67 2178.66 1709.49 2166.78 1713.18 2166.37C1716.04 2166.37 1739.4 2166.37 1764.38 2166.37L1810.68 2166.78C1807.4 2100.02 1807.4 2078.31 1808.63 2075.44C1810.27 2071.76 1822.15 2070.94 1851.64 2071.35L1892.61 2072.58L1894.65 1857.54L1978.63 1855.49V1544.19H2064.66C2064.66 1157.12 2063.84 1041.61 2062.61 1038.34C2060.97 1033.42 2052.37 1032.19 2019.6 1032.19H1978.63V714.752L1892.61 716.8V499.712H1806.58V405.504L1710.31 407.142L1708.26 307.2H1609.94V204.8H1049.13L1046.67 308.019ZM528.455 589.824H430.138V688.128H348.207L346.158 882.688H258.083V1118.21C365.822 1118.21 400.233 1118.62 404.329 1119.03C410.884 1119.85 411.703 1112.47 411.703 1011.71V903.168L499.779 901.12V618.496H585.807V491.52H528.455V589.824ZM2060.56 537.395C2060.97 558.285 2061.79 584.909 2062.61 596.787L2064.66 618.496L2151.1 620.544L2150.69 901.12L2242.86 903.168V1118.21H2400.58V880.64H2310.45V688.128H2224.43V589.824H2122.01L2119.96 493.568C2076.54 491.52 2064.25 492.749 2062.61 495.206C2061.38 497.664 2060.56 516.506 2060.56 537.395ZM258.083 1687.55L344.52 1689.6L344.11 1875.97H430.138V1978.37L534.6 1977.14L532.552 2072.58H589.903L587.036 1947.65H503.056L503.876 1667.07H413.752V1445.89H258.083V1687.55ZM2244.91 1667.07C2156.42 1667.07 2154.38 1667.07 2151.92 1676.08C2150.69 1681 2150.28 1704.76 2150.69 1728.51C2151.51 1751.86 2151.51 1810.84 2151.1 1859.58L2150.69 1947.65H2066.71V2070.53L2122.01 2072.58L2124.06 1976.73L2224.43 1978.37C2225.66 1960.76 2226.07 1944.78 2226.48 1931.26C2227.29 1917.75 2227.7 1899.72 2227.7 1891.12L2228.52 1875.97H2310.45V1687.55H2400.58V1445.89H2244.91V1667.07ZM1261.74 1044.48H1388.73V813.875C1388.73 856.064 1388.73 925.286 1388.73 1044.48H1487.05V1183.74L1616.09 1185.79L1616.91 1239.04H1712.77C1786.51 1239.04 1808.63 1239.86 1808.63 1243.96C1808.63 1246.82 1807.81 1275.08 1806.58 1363.97H1614.04L1616.09 1419.26L1487.05 1421.31L1493.19 1560.58H1392.83L1265.42 1562.62L1169.57 1558.53L1171.61 1421.31H1044.62V1366.02H845.938L843.889 1241.09H1040.52L1042.57 1185.79L1171.61 1183.74V1044.48H1261.74Z" fill="white"/>
</svg>
