<svg width="1024" height="774" viewBox="0 0 1024 774" fill="none" xmlns="http://www.w3.org/2000/svg">
<path fill-rule="evenodd" clip-rule="evenodd" d="M0.35883 0H629.412V94.7089H0.35883L0.19544 82.7886C0.19544 76.4203 0.19544 61.8873 0.19544 50.6203C0.19544 39.3532 0.19544 23.3506 0.35883 15.0228V0ZM877.766 0H933.318V43.4354L955.703 43.1089C971.062 42.9456 978.904 43.4354 980.375 44.7418C981.845 46.0481 982.335 52.9063 982.335 93.076L1024 93.8924V191.867L982.335 192.684V240.038H930.051L929.234 288.209L880.216 288.699L879.236 330.665H830.219L830.709 384.551L779.731 385.367V434.354H730.714V458.848C730.714 483.015 730.551 483.505 726.956 483.995C724.996 484.158 713.231 484.322 678.429 484.158V532.329H629.412V581.316H577.127V635.203L528.927 635.366L529.254 653.654C529.581 663.778 529.417 673.739 528.11 679.291H381.059V774H0.35883L0.19544 763.059C0.19544 757.018 0.19544 735.137 0.35883 714.399C0.35883 693.824 0.522221 676.678 0.685611 676.515C1.01239 676.352 85.8121 676.189 377.791 676.025V530.696L387.104 530.533C392.333 530.37 403.77 530.206 428.442 529.88L428.115 431.905L477.459 431.089V409.044C477.459 389.286 477.622 387 480.237 387C481.871 386.837 492.981 386.673 527.293 386.184L527.456 363.323C527.62 350.913 527.783 339.319 527.947 337.686C528.11 335.073 530.234 334.747 573.859 334.747L574.676 288.209L624.51 287.392L625.327 239.222H672.711L674.344 195.133L724.995 193.5L725.812 143.696L775.647 142.88V93.8924L827.115 93.076L826.951 69.8886C826.951 52.9063 827.441 46.0481 829.075 44.5785C830.546 43.1089 837.245 42.7823 877.766 44.0886V0ZM830.382 194.316H877.766V146.962H830.219L830.382 194.316ZM879.073 216.687L879.399 238.405L927.6 238.568L927.11 192.684C891.817 192.684 880.87 193.337 880.216 193.827C879.399 194.48 878.909 204.767 879.073 216.687ZM482.361 579.684H573.859V532.329H528.11C526.639 521.715 526.476 510.775 526.803 501.304L527.293 484.158H482.361V579.684ZM0.35883 194.316H527.293L528.437 200.522C529.09 203.951 529.744 223.709 529.744 244.61C529.744 266.654 529.09 283.963 528.11 285.76C526.476 289.025 524.842 289.025 264.234 289.025C56.075 289.025 1.82934 288.699 0.849002 287.066C0.35883 285.923 -0.131341 272.206 0.0320494 256.367C0.0320494 240.691 0.19544 220.28 0.19544 211.135L0.35883 194.316ZM0.35883 385.367H335.309L335.799 430.599C335.963 455.582 335.963 477.953 335.309 484.975H168.651C59.1794 484.975 1.82934 484.485 1.17578 483.342C0.849002 482.525 0.35883 468.646 0.35883 452.643C0.19544 436.804 0.19544 415.086 0.35883 404.472V385.367Z" fill="#F73029"/>
</svg>
