<svg width="1024" height="409" viewBox="0 0 1024 409" fill="none" xmlns="http://www.w3.org/2000/svg">
<path fill-rule="evenodd" clip-rule="evenodd" d="M147.975 0H264.902L265.518 19.0949L309.874 20.3268L310.49 36.9578H327.739L328.355 52.3569L336.98 52.9729C345.481 53.5889 345.605 53.5889 345.974 57.2846C346.097 59.2557 346.467 63.3211 347.453 71.4518H364.702L365.072 80.4449C365.318 88.3292 365.565 89.3148 367.782 89.438C369.138 89.5611 372.834 89.6843 381.952 89.9307L382.568 122.577L399.201 123.193V157.687H409.058V256.241H399.201V290.735H383.184L382.568 322.149L364.702 322.765V340.012L360.02 340.751C357.556 341.121 353.49 341.244 346.837 340.628L346.714 357.875L327.739 358.491V374.506L323.673 374.629C321.579 374.752 319.238 374.876 318.498 375.122C317.759 375.245 315.788 375.492 313.816 375.492C310.613 375.738 310.49 375.984 309.874 392.369L265.518 392.985L266.134 409H150.316V392.369H97.9521L97.7057 375.122L78.8545 374.506V358.491H61.6051V341.244H46.2038L45.3414 336.686C44.8485 334.099 44.3557 329.91 44.3557 322.765L27.7223 322.149L26.4902 291.351L11.705 290.119L11.0889 256.241L0 257.473V157.687H11.0889V123.193H27.1062L27.7223 89.3148L44.9717 89.0684L45.5878 71.4518H61.6051L62.2212 53.5889H78.8545V36.9578H97.3361V19.7108L147.236 19.0949L147.975 0ZM166.334 55.4367H150.316L149.7 72.0678L133.067 72.6837V91.1627H118.282C118.282 113.091 117.789 120.852 117.05 122.577C115.941 125.287 115.078 125.657 109.657 125.657H103.497V174.934H92.4077V238.994H103.497V289.503C114.585 289.503 116.064 289.996 117.05 291.967C117.789 293.322 118.282 301.083 118.282 309.214V323.997L133.683 324.613L133.067 342.476L149.7 343.092L150.44 359.107L166.334 358.491V375.738L248.269 375.122L248.885 358.491H263.67L264.286 343.092L280.919 342.476V323.997H295.704V289.503H309.258L309.874 239.61L321.579 238.994V174.934H310.49V125.657H295.704V91.1627H280.919V72.6837H264.902C264.656 63.5675 264.656 59.7485 264.779 58.2702C264.902 55.5599 264.409 55.4367 256.893 55.4367H248.885V38.1898H166.334V55.4367ZM78.7313 96.3367C78.3617 99.9093 78.3617 103.852 78.4849 104.96C78.8545 106.685 80.0866 107.178 84.399 107.178H89.9434L89.3274 90.7931L79.2242 89.8075L78.7313 96.3367ZM322.934 105.946H334.023V89.9307H322.934V105.946ZM335.132 130.461C335.255 143.027 335.748 154.237 336.241 155.223C336.733 156.208 338.951 157.317 341.415 157.44C343.756 157.687 346.097 158.303 346.59 158.672C347.083 159.165 347.33 181.217 347.206 207.58L346.96 255.625L335.255 256.241V309.214H349.424V290.119L364.209 288.887C364.456 272.626 364.579 264.988 364.702 261.538L364.825 255.009H375.914V158.919H364.825V125.657H350.04L349.424 108.286L334.762 107.547L335.132 130.461ZM61.7283 125.657H45.711V158.919H33.39L34.006 254.393L45.711 255.009V289.503H61.7283L62.3444 308.598L76.5135 309.214V256.241H64.8086C66.2871 247.248 66.6567 225.073 66.6567 201.174V157.687H76.5135V108.41H61.7283V125.657ZM77.7456 325.229H88.8346V310.446H77.7456V325.229ZM322.934 323.997H332.791V310.446H322.934V323.997ZM414.11 20.9428H522.534V55.4367L488.036 56.0527V190.949H449.84V55.4367H414.11V20.9428ZM537.32 20.9428H619.871V38.1898L637.736 38.8057L638.106 71.4518C638.352 89.438 638.229 104.96 637.859 105.946C637.243 107.424 635.272 107.794 621.103 107.178V123.193H637.12V190.949H601.389V123.193H573.051V190.949H537.32V20.9428ZM573.051 89.9307H601.389V55.4367H573.051V89.9307ZM686.404 20.9428H741.849V48.0452H757.866V123.193H773.883V190.949H739.384V157.687H691.332V190.949H653.137V123.193H670.387V48.0452H686.404V20.9428ZM704.886 122.577H722.135V71.4518H704.886V122.577ZM803.454 20.9428H879.844V38.1898L895.245 38.8057L895.861 76.3795H857.666V55.4367H823.167V156.455H857.666V137.976H895.861L895.615 156.208C895.369 169.513 894.876 174.441 893.767 174.687C892.904 174.811 889.331 174.934 879.228 174.934L879.844 190.949H803.454V174.934L786.82 174.318V38.8057L803.454 38.1898V20.9428ZM911.879 20.9428H948.842V83.7711H968.555V48.6611L984.573 50.509V20.9428H1024V37.5738C1024 53.8352 1024 54.2048 1021.29 54.8208C1019.69 55.1904 1016.11 55.3136 1007.74 54.8208L1007.98 88.6988H988.269V115.801L1007.37 116.417L1007.98 156.455H1013.28C1016.11 156.455 1019.69 156.824 1021.29 157.071C1024 157.687 1024 158.056 1024 190.949L985.189 190.333L984.573 158.919H968.555V120.729H948.842V190.949H911.879V20.9428ZM449.84 209.428H548.409V243.922H486.804V275.952L528.079 276.568L528.695 311.678H486.804V379.434H449.84V209.428ZM563.194 209.428H601.389V343.708L658.682 344.324L659.298 379.434H563.194V209.428ZM693.797 209.428H781.276L780.66 226.552L797.909 227.291L798.525 362.187H781.276L780.66 378.818L693.797 379.434V362.187L675.931 361.571L675.685 298.496C675.438 263.756 675.808 233.574 676.301 231.356C677.287 227.291 677.41 227.291 693.797 226.675V209.428ZM713.51 343.708H760.33V243.922H713.51V343.708ZM815.775 209.428H852.738L853.354 309.83L867.523 309.214V343.708H883.54V250.081H921.736V343.708H937.753L938.369 309.83L954.386 309.583L955.002 209.428H990.733V341.244H974.716V379.434H909.414V346.172H895.861V379.434H831.792V341.244L816.391 340.628L815.775 209.428ZM196.151 105.823L218.821 106.562L219.437 160.151H234.223V181.093H252.704V195.877L284.123 196.492V219.899L253.32 220.022L252.704 231.602H234.223L233.607 255.625L219.437 256.241L218.821 308.598L196.027 309.214V256.241L180.626 255.625L179.394 232.218H162.145L160.913 219.899L148.592 219.776C141.815 219.776 135.038 219.653 133.56 219.53C130.849 219.283 130.726 218.79 130.726 197.724L136.64 196.862C139.844 196.246 146.743 195.877 161.529 195.877V180.477L180.01 182.325V160.151H196.027L196.151 105.823Z" fill="#F73029"/>
</svg>
