<svg width="1106" height="1536" viewBox="0 0 1106 1536" fill="none" xmlns="http://www.w3.org/2000/svg">
<path fill-rule="evenodd" clip-rule="evenodd" d="M50.3421 0H824.542L825.762 14.0363C826.373 21.8172 826.83 31.8867 826.83 44.2447H845.899C857.036 44.2447 865.273 44.855 865.731 45.7704C866.189 46.6858 866.646 58.5861 866.951 72.4698C867.104 86.3535 867.562 97.6436 868.019 97.6436C868.477 97.6436 878.393 98.1013 890.139 98.559C901.886 99.0167 911.649 99.627 911.954 99.627C912.107 99.7795 912.259 108.628 912.259 138.837H934.379C952.686 138.837 956.652 139.295 957.262 141.125C957.72 142.346 958.025 152.721 958.025 184.607H1002.26L1002.57 195.745C1002.72 201.695 1002.88 213.748 1003.03 238.006H1054.13V280.725L1105.24 281.488L1106 1492.12L1099.44 1492.27C1095.93 1492.42 1087.85 1492.73 1081.59 1492.88C1075.34 1493.03 1066.49 1493.34 1054.13 1493.64L1053.37 1535.6L553 1535.9C277.797 1536.21 52.1727 1535.75 51.5625 1535.14C50.9523 1534.53 50.3421 1524.92 50.3421 1493.64L41.4941 1493.49C36.765 1493.49 30.0527 1493.34 26.6966 1493.03C23.3404 1492.88 16.0179 1492.57 0 1492.12V45.7704L10.221 45.4653C16.0179 45.3127 21.9674 45.0076 23.6455 44.855C25.3236 44.7024 32.0359 44.5499 50.3421 44.2447V0ZM82.3779 121.749C82.3779 138.227 82.2254 441.685 81.9203 795.948L81.6152 1440.24C811.118 1440.85 1023.32 1440.85 1024.08 1440.7C1024.69 1440.4 1025.15 1189.73 1025.15 883.369V326.496L763.521 325.733L762.911 91.5408H82.3779V121.749ZM839.034 251.127H919.887V187.811H877.172V155.772H839.034V251.127ZM141.873 415.138H289.848L290.001 418.494C290.153 420.325 290.458 422.614 290.611 423.529C290.764 424.292 291.069 429.937 291.374 447.177H305.866C318.528 447.177 320.511 447.482 320.969 449.771C321.274 451.296 321.274 467.926 320.969 486.845C320.664 505.611 320.511 523.614 320.359 532.615H290.611L290.916 574.571L305.256 575.029C313.189 575.182 319.901 575.944 320.359 576.707C320.816 577.47 321.274 600.203 321.426 627.36C321.579 654.517 321.426 677.86 321.121 679.386C320.511 681.674 318.375 682.132 291.374 682.132L290.611 714.934H142.636L141.873 415.138ZM204.267 498.592C204.114 510.188 203.962 521.63 203.962 524.224L203.809 528.801L260.863 529.564V477.691H204.419L204.267 498.592ZM203.962 606.153C204.267 614.697 204.572 629.038 204.572 638.192V654.517H261.016L260.253 591.201L203.351 590.744L203.962 606.153ZM428.06 414.833L429.128 429.021C429.891 436.802 430.348 487.76 430.348 542.227C430.348 596.846 430.348 643.074 430.348 648.262H523.405L522.642 714.629H362.463L361.853 566.18C361.548 484.404 361.853 416.969 362.31 416.206C362.921 415.443 377.871 414.833 428.06 414.833V414.833ZM695.788 414.833V446.872H740.028V455.721C740.028 460.603 740.181 512.934 740.181 571.978C740.181 631.174 740.181 680.454 740.181 681.522C740.028 682.895 735.757 683.352 707.993 683.352V697.541C707.993 705.322 707.382 712.493 706.772 713.561C705.857 714.934 691.822 715.392 583.663 714.629L583.51 702.423C583.51 695.71 583.358 688.692 583.205 686.862C582.9 683.505 582.442 683.352 549.339 683.352L550.102 447.635L566.425 447.33C575.425 447.177 582.9 446.414 583.053 445.804C583.053 445.194 583.358 439.091 583.663 432.378C583.968 425.665 584.273 419.105 584.273 417.579C584.426 415.138 588.087 414.833 695.788 414.833V414.833ZM611.885 648.262H677.482V478.911H611.885V648.262ZM941.397 414.833L942.159 443.058H956.194C963.822 443.058 970.534 443.515 970.992 443.821C971.449 444.278 971.907 461.061 971.907 481.2C971.907 501.339 971.449 518.426 970.839 519.037C970.076 519.647 954.821 519.952 904.021 519.342L903.259 478.911H839.187V652.839H903.259V610.12H890.292C883.122 610.12 877.325 609.662 877.172 609.052C877.172 608.442 877.02 596.541 876.867 557.484L971.907 556.721L972.212 607.526C972.517 635.446 972.517 663.976 971.907 683.352H941.397V715.392L810.965 714.629L810.202 683.352H778.166L778.929 447.635L810.202 446.872V433.141C810.202 425.665 810.507 418.494 811.118 417.121C811.88 415.138 820.576 414.833 941.397 414.833ZM941.549 845.837L941.397 884.742C941.244 906.254 941.092 923.952 940.786 924.105C940.634 924.257 768.556 924.41 176.35 924.563L176.045 886.726C175.892 865.976 176.045 848.126 176.502 847.058C176.96 845.532 251.253 845.227 941.549 845.837ZM175.434 1003.75H941.397V1076.98L936.362 1077.89C933.617 1078.35 761.538 1078.5 176.35 1077.74L175.434 1003.75ZM647.582 1161.65V1239.46L175.434 1240.23L175.282 1201.63C175.129 1180.42 175.587 1162.57 176.197 1161.96C176.96 1161.35 283.289 1161.2 647.582 1161.65Z" fill="#FE4A3B"/>
</svg>
