<svg width="1024" height="986" viewBox="0 0 1024 986" fill="none" xmlns="http://www.w3.org/2000/svg">
<path fill-rule="evenodd" clip-rule="evenodd" d="M355.481 0H667.415V41.0176H756.561L756.088 54.7427C755.772 62.473 755.93 70.992 757.35 78.88H806.262V115.165L852.807 115.954L853.596 151.45L858.014 151.607C860.381 151.607 870.952 151.607 900.931 151.45V187.734L940.534 188.523L940.376 261.882L982.188 262.67L982.819 346.283L1024 347.072V642.083H982.977V724.118H941.954V801.421H901.72L902.035 819.563C902.351 829.502 902.035 837.863 901.246 837.863C900.615 838.021 889.886 838.179 854.701 838.494L855.016 855.532C855.174 867.996 854.701 872.413 853.123 872.571C852.176 872.728 841.289 872.886 807.051 873.202V909.486L757.35 910.275V946.56L668.203 947.349L667.415 986H357.374L356.27 980.163C355.639 976.85 355.008 968.015 355.008 946.56H265.072V910.275H216.16V872.413L193.598 872.571C181.291 872.571 170.246 872.571 169.141 872.571C167.721 872.413 167.248 867.838 167.248 837.706H121.492L121.334 829.502C121.176 824.927 121.176 816.724 121.492 801.421H100.98C85.6752 801.421 80.4684 800.948 80.4684 799.528C80.3106 798.423 80.4684 780.754 80.6262 723.33L40.2342 724.907L39.7609 642.872L0 643.661V346.283H40.2342V261.882H80.4684L80.3106 188.523L120.86 186.946L121.334 152.238L168.826 153.027V115.165H216.16L216.949 78.5645L265.072 78.88V41.0176L355.797 40.2288L355.481 0ZM403.131 118.636L366.052 118.32V156.182L327.712 156.971L328.185 192.467H295.051V276.08H260.339L260.655 396.766L228.783 397.555V594.755H261.917V714.653L294.262 715.442V797.477H327.396C327.554 815.777 327.712 824.138 327.869 827.767L328.185 834.55C354.534 834.393 363.055 834.393 364.001 834.393C365.579 834.55 366.052 839.283 366.052 852.693V870.835L402.5 871.624L403.131 907.909L620.08 908.698V870.835H658.737C658.105 839.125 658.421 834.55 659.841 834.393C660.945 834.393 669.939 834.393 679.564 834.393L697.393 834.55C696.131 808.836 696.131 800.474 696.604 799.37C697.235 797.95 701.811 797.635 713.171 797.792L728.949 798.266L729.738 715.442L762.083 714.653V594.755H795.217C795.217 445.672 794.902 401.184 794.428 399.922C793.797 398.028 790.484 397.555 777.861 397.555H762.083V275.291L728.949 276.08V192.467H695.815V156.182L658.737 156.813L657.948 118.32H620.08V78.88H404.078L403.131 118.636ZM203.538 227.174H165.67V265.037H134.114L133.325 339.973H99.4022V430.685C140.899 430.685 154.152 430.843 155.73 431C158.255 431.316 158.57 428.476 158.57 389.667V347.861L192.493 347.072V238.218H225.627V189.312H203.538V227.174ZM793.639 206.981C793.797 215.027 794.113 225.281 794.428 229.856L795.217 238.218L828.509 239.006L828.351 347.072L863.852 347.861V430.685H924.598V339.184H889.886V265.037H856.752V227.174H817.307L816.518 190.101C799.793 189.312 795.06 189.785 794.428 190.732C793.955 191.678 793.639 198.935 793.639 206.981ZM99.4022 649.971L132.694 650.76L132.536 722.541H165.67V761.981L205.904 761.508L205.116 798.266H227.205L226.1 750.149H193.755L194.071 642.083H159.359V556.893H99.4022V649.971ZM864.641 642.083C830.56 642.083 829.771 642.083 828.825 645.554C828.351 647.447 828.194 656.597 828.351 665.747C828.667 674.74 828.667 697.457 828.509 716.23L828.351 750.149H796.006V797.477L817.307 798.266L818.096 761.35L856.752 761.981C857.225 755.197 857.383 749.044 857.541 743.838C857.856 738.632 858.014 731.691 858.014 728.378L858.33 722.541H889.886V649.971H924.598V556.893H864.641V642.083ZM485.966 283.968H534.878V313.469C534.878 329.718 534.878 356.38 534.878 402.288H572.746V455.926L622.447 456.715L622.762 477.224H659.683C688.084 477.224 696.604 477.54 696.604 479.117C696.604 480.221 696.288 491.107 695.815 525.341H621.658L622.447 546.638L572.746 547.427L575.113 601.066H536.456V730.429L487.228 729.64L487.386 601.854L450.465 600.277L451.254 547.427H402.342V526.13H325.818L325.029 478.013H400.764L401.553 456.715L451.254 455.926V402.288H485.966V283.968Z" fill="#FF4841" fill-opacity="0.98"/>
</svg>
