<svg width="899" height="1024" viewBox="0 0 899 1024" fill="none" xmlns="http://www.w3.org/2000/svg">
<path fill-rule="evenodd" clip-rule="evenodd" d="M232.963 706.053L235.95 759.79L232.963 820.991H291.204V882.192H462.94L461.447 1024H174.723V967.277H114.988L113.495 906.076L53.7608 907.569V847.86H0V707.545L53.7608 706.053L55.2542 695.604L53.7608 1.49271L176.216 0L177.709 706.053H232.963ZM391.259 43.2886H510.728V467.219H565.982L567.475 634.402H510.728V794.122H391.259V634.402L333.018 631.417V470.204L391.259 467.219V43.2886ZM722.784 43.2886L840.759 44.7813V253.761L899 256.746V419.452H839.266L840.759 792.63H721.291V419.452L664.543 417.959V256.746L721.291 253.761L722.784 43.2886ZM232.963 704.56H234.457V706.053H232.963V704.56Z" fill="#F73029"/>
</svg>
