<svg width="1008" height="1024" viewBox="0 0 1008 1024" fill="none" xmlns="http://www.w3.org/2000/svg">
<path fill-rule="evenodd" clip-rule="evenodd" d="M196.2 0H329.4V43.2149H392.4L393.3 85.5294H441.9L442.8 176.461H565.2V84.6291H613.8L614.7 43.0348L679.5 42.3146L680.04 0.90031L810.9 0L810 43.2149H860.4V84.6291H907.2V223.277H860.4V268.292H811.8L812.7 310.607L1008 311.507V549.189H934.2L934.38 784.71C934.56 914.174 934.56 1021.13 934.38 1022.21C934.2 1024.01 847.08 1024.37 73.44 1023.65L73.8 549.189H0V432.149C0 367.686 0 314.568 0 313.668C0 312.948 43.92 312.047 195.3 310.607L196.2 268.292H146.7L147.6 225.077H100.8L101.7 85.5294H117.9C126.72 85.5294 137.16 85.1693 147.6 84.6291V63.922C147.6 48.6167 148.14 43.2149 149.94 43.0348C151.02 43.0348 162 43.0348 196.2 43.2149V0ZM679.5 134.146L640.8 133.246L639.9 178.621L596.7 179.162V261.99H758.7C759.24 242.363 759.42 233 759.42 228.138L759.6 219.676H808.2V88.2304L680.58 87.33L679.5 134.146ZM198 219.676L249.3 220.576V261.99L410.4 262.89V178.261H364.5V134.146L326.7 133.606L326.52 88.2304H198V219.676ZM55.8 495.17H469.8V363.725H55.62L55.8 495.17ZM534.6 495.17H950.4L949.68 363.725H534.6V495.17ZM135 966.933H469.8V549.189H135V966.933ZM534.6 966.933L870.3 966.032L871.2 549.189H534.6V966.933Z" fill="#F73029"/>
</svg>
