<svg width="1024" height="989" viewBox="0 0 1024 989" fill="none" xmlns="http://www.w3.org/2000/svg">
<path fill-rule="evenodd" clip-rule="evenodd" d="M266.541 0L508.235 0.752664L508.988 48.1705H596.329L596.48 62.17C596.48 69.6966 596.48 79.1802 596.329 90.3196L643.313 91.0723L643.012 110.642C643.012 121.329 643.162 132.017 644.518 138.49H686.682V228.81H733.365L732.612 459.877L686.682 460.63V501.274C686.682 523.703 686.381 542.369 686.08 543.122C685.779 543.724 675.388 544.025 640.753 543.724V593.099L636.235 594.002C633.826 594.454 623.736 594.604 596.329 593.852L596.028 600.626C595.878 604.389 596.028 612.518 596.179 618.689C596.48 626.818 596.028 630.431 594.673 631.786C593.167 632.99 580.969 633.442 510.645 632.99L509.741 676.645L263.529 677.397V725.568H221.365L220.612 812.124L179.2 812.877L179.049 852.467C178.899 874.144 178.598 894.616 178.296 897.928C177.995 901.239 177.544 904.1 177.242 904.25C177.092 904.551 166.551 904.852 130.56 905.454L130.259 911.476C130.108 914.787 129.807 924.723 129.506 949.861H88.8471V989H42.1647L41.4118 950.614L0 949.861V817.393L41.4118 816.64V771.48L60.9882 771.179C71.8306 770.878 82.0706 770.426 87.3412 769.222V684.171L95.9247 683.117C100.744 682.666 111.285 682.214 119.416 682.365C131.464 682.666 134.024 682.214 134.174 680.408C134.325 679.204 134.475 677.397 134.776 676.645C134.927 675.892 135.228 666.559 135.529 636.753H177.694V593.099H154.654C142.155 592.948 131.614 592.798 131.464 592.647C131.464 592.497 131.012 581.809 130.259 545.681L86.5882 544.176L87.3412 456.114H39.1529L39.9059 229.562L84.3294 228.81V213.455C84.3294 204.875 84.48 184.704 85.0824 139.243L129.506 138.49L130.259 91.0723L170.918 89.567L171.671 48.1705H264.282L265.487 43.3534C266.089 40.6438 266.541 29.8055 266.541 19.1177V0ZM262.776 134.877L220.612 135.63L221.365 182.295C207.962 182.446 198.024 182.596 190.494 182.747L176.941 183.048C176.941 216.014 176.64 226.1 176.188 226.552C175.736 227.003 168.659 227.756 160.376 227.907C152.094 228.208 142.005 228.509 137.788 228.659L130.259 228.96V450.996C170.616 452.2 177.092 452.953 177.393 454.308C177.544 455.361 177.694 467.103 177.694 480.35V504.435L219.106 504.285C220.913 511.962 221.365 520.392 221.365 528.069V542.068C227.84 542.219 232.659 542.219 236.424 542.219C240.188 542.219 247.718 542.52 253.44 542.821L263.529 543.574V588.733L506.729 587.981L507.482 554.111H554.165V504.435H599.341V457.77C605.816 457.619 615.304 457.619 624.64 457.619L641.506 457.77C641.807 349.838 641.807 315.065 641.807 311.001C641.807 306.786 641.807 286.464 641.656 265.841L641.506 228.208C610.635 228.208 600.395 228.057 599.04 227.756C596.631 227.455 596.329 225.197 596.329 204.875V182.295C563.049 182.145 553.111 181.844 552.659 181.542C552.207 181.241 551.906 170.855 551.906 158.36V135.63H507.482V88.9648H263.68L262.776 134.877ZM891.482 0.150533H1024L1023.25 904.099L891.482 904.852L891.031 808.812C890.88 755.975 890.88 552.455 891.031 356.461L891.482 0.150533ZM783.812 504.134C795.407 504.435 805.045 504.736 805.346 504.887C805.647 505.037 805.798 567.809 805.798 644.431C805.948 721.052 805.798 810.92 805.647 904.852H644.518L644.367 790.899C644.216 728.127 644.066 657.226 643.765 589.486L722.071 588.733L722.221 573.229C722.221 564.799 722.372 545.832 722.824 504.435L742.852 504.134C753.694 503.833 772.216 503.984 783.812 504.134V504.134ZM566.965 676.795L567.416 784.426C567.718 843.585 567.416 894.917 566.212 904.852H426.165V724.213L431.134 724.062C433.694 723.912 452.216 723.761 508.235 723.46L508.386 700.88C508.536 683.569 509.139 678.15 510.645 677.247C511.849 676.645 524.951 676.193 566.965 676.795ZM564.104 328.613L563.953 496.156L508.235 496.758L507.934 519.037C507.784 531.23 507.332 542.068 507.031 542.821C506.579 543.724 491.52 544.477 466.974 544.778C441.976 544.928 427.369 544.477 426.918 543.574C426.466 542.821 426.165 497.511 426.014 443.168C425.864 388.675 425.864 340.505 426.165 328.312L490.616 328.011C526.005 327.71 557.026 327.86 564.104 328.613V328.613Z" fill="#F73029"/>
</svg>
