<svg width="984" height="989" viewBox="0 0 984 989" fill="none" xmlns="http://www.w3.org/2000/svg">
<path fill-rule="evenodd" clip-rule="evenodd" d="M353.992 0L406.911 0.397871C435.958 0.663118 490.734 1.06099 528.401 1.19361C582.515 1.45886 597.369 1.98935 598.696 3.31559C600.022 4.64183 600.287 13.9255 599.889 47.7445C599.624 71.2189 599.359 93.367 599.359 97.0805C599.359 100.661 599.491 105.568 599.491 107.69C599.624 109.812 599.624 118.566 599.624 126.921C599.757 135.276 599.624 155.302 599.624 171.35C599.624 187.397 599.359 257.688 598.961 327.448C598.563 428.109 598.828 454.766 600.155 455.695C600.95 456.358 608.112 456.888 616.07 456.756C623.895 456.623 630.262 456.756 630.262 457.154C630.262 457.552 636.097 457.552 643.127 457.286C650.289 457.021 684.773 456.888 719.788 456.888C754.802 456.888 800.692 456.888 821.913 456.888C843.134 456.888 870.456 456.888 882.923 456.756C895.391 456.756 908.256 456.888 911.704 457.286C915.153 457.552 918.071 457.552 918.071 457.154C918.071 456.756 922.978 456.623 928.946 456.888C935.047 457.021 940.618 457.154 941.281 457.286C941.944 457.286 948.576 457.286 955.87 457.286C963.165 457.286 971.521 457.419 974.439 457.684C977.357 457.949 980.672 458.082 981.733 458.215C983.458 458.48 983.59 463.52 982.529 500.522C981.866 523.731 981.336 544.951 981.203 547.736C981.203 550.653 981.468 553.173 982.131 553.438C982.662 553.704 982.795 555.295 982.397 556.887C981.999 558.611 981.601 573.067 981.601 618.291L949.902 617.628V631.156C949.769 638.715 949.769 661.129 949.902 680.89C949.902 700.783 950.167 717.759 950.565 718.422C950.963 719.085 950.433 720.677 949.637 721.738C948.178 723.462 945.393 723.727 914.755 722.003V788.05L898.839 787.519C890.086 787.254 882.658 786.856 882.26 786.723C881.862 786.458 881.332 790.039 881.199 794.416C880.934 798.925 880.669 806.75 880.271 820.94L846.45 820.543V836.457C846.45 845.211 846.317 853.035 846.185 853.831C845.919 854.759 843.665 855.688 841.145 855.953C838.625 856.351 835.84 856.616 835.176 856.484C834.513 856.484 828.677 856.218 810.64 855.025L811.17 871.205C811.435 880.223 811.435 888.181 811.17 888.844C810.772 889.639 805.998 890.037 799.631 889.905C793.663 889.772 785.572 889.905 774.829 890.833L774.962 903.698C774.962 910.859 774.697 918.154 774.299 920.01C773.636 922.53 772.309 923.591 768.463 924.254C765.81 924.785 750.558 924.917 705.861 923.989V939.241C705.861 952.503 705.596 954.625 703.607 955.686C702.28 956.216 685.304 956.614 630.262 955.819L630.129 964.041C630.129 968.683 630.129 975.712 630.262 979.691C630.527 986.587 630.262 986.985 626.681 988.046C624.691 988.709 577.077 989.107 520.841 988.975C464.606 988.842 404.391 988.577 386.884 988.444C369.377 988.311 354.522 987.781 353.726 987.383C352.931 986.853 352.533 980.354 352.931 956.482H314.468C289.931 956.482 276.137 955.951 276.005 955.156C275.872 954.492 275.872 946.8 276.005 938.18C276.137 926.111 275.74 922.795 274.546 923.591C273.617 923.989 265.394 924.387 256.243 924.254C247.091 924.254 232.369 924.122 207.169 923.989L208.363 890.17H171.359L171.492 874.255C171.492 865.502 171.492 857.677 171.492 857.014C171.359 856.218 165.125 855.82 154.78 855.953C142.313 856.218 138.201 855.953 138.069 854.627C138.069 853.831 137.936 845.874 137.538 821.206L124.938 821.073C118.041 820.94 111.543 820.542 110.747 820.012C109.818 819.614 108.094 819.879 107.033 820.543C105.707 821.471 104.778 821.338 104.115 820.145C103.452 819.349 103.054 811.391 103.054 786.723L85.8121 787.254C72.2838 787.519 68.4375 787.254 67.7744 785.928C67.3765 784.867 67.1112 781.021 67.2438 777.44C67.5091 773.726 67.7744 760.995 67.907 748.926C68.0396 736.857 68.1722 725.849 68.0396 724.39C67.907 721.871 67.1112 721.738 53.7155 722.136C45.7576 722.401 38.1977 722.268 36.7387 721.871C34.0861 721.207 34.0861 720.146 34.3514 680.359C34.484 657.946 34.7493 635.665 34.8819 630.891C35.0145 626.116 35.0145 621.209 34.8819 619.883C34.7493 617.894 33.2903 617.628 0.265262 618.955V595.348C0.397893 582.483 0.265262 568.823 0.265262 565.242C0.265262 561.529 0.132631 537.656 0.132631 512.193C0 486.596 0 462.459 0 458.48C0.132631 454.501 0.397892 436.597 0.928416 386.2L34.7493 386.863L34.0861 365.246C33.6882 353.442 33.2903 343.097 33.2903 342.434C33.2903 341.771 33.423 327.713 33.6882 311.533C33.9535 293.894 34.6166 281.427 35.4124 280.764C36.2082 280.101 44.1661 279.703 69.6312 280.101L69.4986 259.544C69.3659 248.271 69.2333 233.683 69.1007 227.052C68.968 220.42 68.968 214.055 69.1007 212.728C69.2333 211.535 70.8249 209.811 72.947 209.147C75.5996 208.219 76.9259 208.219 78.2522 209.413C79.5785 210.739 79.9764 210.739 79.8438 209.413C79.8438 208.617 80.2417 208.087 80.9048 208.352C81.4353 208.75 86.3427 209.28 91.7805 209.678C97.2184 210.208 102.391 210.076 103.054 209.413C103.85 208.882 104.38 200.925 104.38 172.676L113.001 172.411C117.776 172.278 125.601 172.013 139.528 171.35L139.66 166.708C139.793 164.188 139.926 157.292 140.191 151.456C140.323 145.621 140.589 139.785 140.721 138.459C140.854 136.47 142.18 136.204 155.443 136.868C163.534 137.265 170.431 137.663 171.094 137.663C171.624 137.796 173.083 137.796 174.41 137.663C176.399 137.531 176.664 135.939 176.399 120.29C176.134 109.68 176.532 102.916 177.327 102.651C178.123 102.385 185.551 102.385 193.906 102.518C204.384 102.783 209.424 102.385 209.955 101.324C210.485 100.396 210.618 92.7039 210.353 84.0834C210.087 75.5955 210.22 68.3012 210.883 68.0359C211.414 67.6381 214.597 67.1076 218.178 66.7097C221.891 66.1792 224.411 66.4444 224.411 67.2402C224.411 67.9033 225.472 68.3012 226.799 67.9033C227.992 67.5054 240.327 67.1076 279.188 66.5771L278.923 56.6303C278.657 51.1927 278.525 44.0311 278.525 40.7155C278.525 37.3999 278.525 33.5538 278.657 32.0949C278.79 29.5751 279.718 29.4425 309.03 29.3098C325.609 29.1772 342.585 29.0446 354.39 28.7793L354.257 17.1085C354.257 10.7425 354.124 4.37658 354.124 2.7851L353.992 0ZM671.377 28.912L713.156 29.7077V46.8161C713.289 56.2324 713.687 64.7203 714.217 65.5161C714.88 66.8423 722.042 67.1076 745.253 66.5771C761.832 66.3118 777.615 66.4444 785.307 67.9033L784.909 102.385L821.25 101.722L820.852 118.433C820.72 127.584 820.852 135.674 821.25 136.337C821.648 137 828.147 137.531 835.84 137.531C843.532 137.531 850.031 137.265 850.429 137C850.827 136.602 852.551 136.868 857.724 138.326L856.795 172.676H874.966C889.688 172.676 893.269 173.074 894.197 174.665C894.86 175.726 894.993 177.185 894.462 177.716C893.932 178.379 893.401 190.182 893.136 203.975C893.003 220.023 893.269 229.041 894.197 229.041C894.86 229.041 895.126 229.837 894.595 230.633C894.064 231.561 893.534 235.142 892.871 244.956L909.715 244.425C918.999 244.028 927.222 244.293 928.018 244.956C928.814 245.619 929.212 257.29 928.946 276.388C928.814 292.966 928.548 307.819 928.416 309.278C928.416 310.737 928.416 312.461 928.416 313.257C928.548 314.053 935.445 314.716 944.862 314.981C953.881 315.246 961.441 315.644 961.839 315.91C962.237 316.042 962.502 332.09 962.502 351.187C962.502 370.418 962.104 386.731 961.574 387.526C961.043 388.322 949.372 388.72 929.742 388.455C912.765 388.189 898.176 388.057 897.513 388.189C896.717 388.189 847.511 388.322 788.092 388.587C728.674 388.72 679.07 389.383 678.009 390.046C676.683 390.709 674.826 390.444 672.969 389.383C670.582 387.792 670.184 386.731 670.847 382.221C671.245 379.304 671.51 376.121 671.377 375.192C671.377 374.397 671.245 372.805 671.245 371.877C671.245 371.081 671.112 361.665 671.112 351.055C671.112 340.445 671.112 330.366 671.112 328.509C671.112 326.652 671.245 304.239 671.245 278.775C671.377 253.179 671.112 232.091 670.847 231.694C670.449 231.296 670.582 230.102 671.245 229.041C671.775 227.98 671.908 225.858 671.377 224.399C670.847 222.94 671.112 220.553 671.908 219.227C672.969 217.238 672.969 216.574 671.377 216.177C669.52 215.513 669.52 215.381 671.377 214.32C673.102 213.391 673.101 212.198 671.775 206.23C670.979 202.384 670.582 199.068 671.112 198.803C671.643 198.67 671.908 194.824 671.908 190.182C671.775 185.673 671.377 181.164 670.847 180.236C670.449 179.44 670.449 178.379 670.979 178.114C671.51 177.848 671.908 173.472 671.775 168.432C671.775 163.525 671.51 156.363 671.245 152.782C670.979 149.069 671.245 145.356 671.775 144.427C672.306 143.631 672.04 141.509 671.377 139.785C670.714 138.194 670.449 136.602 670.847 136.204C671.112 135.807 671.377 128.38 671.377 119.627C671.245 110.873 670.979 97.611 670.582 90.0515C670.316 82.6245 670.449 76.5238 670.979 76.5238C671.51 76.5238 671.775 73.6061 671.51 70.1579C671.245 66.7097 671.112 63.2615 671.112 62.5984C671.245 61.8026 671.245 53.9778 671.245 45.092L671.377 28.912Z" fill="#F73029"/>
</svg>
