<svg width="971" height="1024" viewBox="0 0 971 1024" fill="none" xmlns="http://www.w3.org/2000/svg">
<path fill-rule="evenodd" clip-rule="evenodd" d="M713.456 0H969.854V252.595H910.4V195.637H860.854V158.491H831.127V195.637H795.206L794.587 234.641L755.57 235.26V277.359H714.695V316.982H672.581V356.605H634.183V398.704H599.501V433.993L594.918 434.86C592.317 435.355 583.151 435.85 574.357 435.85C558.75 435.85 558.626 435.85 557.388 432.755C556.644 430.897 556.521 425.573 558.007 408.609H518.99V370.225H479.353L478.61 366.139C478.239 364.034 478.115 355.119 478.734 330.602H439.717V286.027H400.08V247.023L396.117 248.014C393.887 248.509 386.827 248.88 369.114 248.88V287.265L330.097 287.884L328.859 329.983L288.603 330.602V370.225H248.966V412.324H209.33L208.711 451.328L168.455 451.947V494.046H100.33L99.7104 491.198C99.3388 489.712 99.215 473.12 99.7104 420.372L141.824 419.134L142.443 375.178L187.654 374.559L188.892 332.46L231.006 331.84L231.378 310.419C231.625 298.78 232.121 288.874 232.369 288.503C232.74 288.132 242.154 287.76 273.739 287.265V245.166L316.472 244.547L317.092 204.305H359.205L359.825 162.825L409.99 162.206L410.609 203.686L453.342 204.305L453.961 244.547L496.075 244.918L496.694 287.265L538.189 287.884L538.808 333.079H593.308L593.927 287.884L634.802 287.389L635.422 247.642H677.536V204.305H719.649V184.122C719.649 170.006 720.021 163.568 721.136 162.577C722.25 161.339 728.32 160.967 763.621 160.967V123.202L806.354 122.583V101.533H763.002V54.4813H713.456V0ZM765.107 335.555H970.35L970.845 560.043C971.093 683.368 971.093 838.145 970.474 1023.38L766.718 1024V899.188C766.718 830.592 766.346 675.691 765.85 555.09L765.107 335.555ZM813.538 437.336C813.29 466.062 813.043 598.427 812.919 731.411L812.671 973.11H921.671V384.96H814.034L813.538 437.336ZM505.365 503.952H703.547L703.919 759.271C704.042 899.808 704.042 1016.82 703.547 1024H505.365V503.952ZM554.91 974.472H655.24V554.718H554.91V974.472ZM445.91 607.961V1024L245.87 1023.38L245.622 817.219C245.374 703.799 245.498 610.314 245.87 609.447C246.365 608.333 267.546 607.961 445.91 607.961ZM294.424 973.853C373.45 973.853 396.364 973.481 396.364 972.862C396.364 972.367 396.364 744.041 396.364 657.49H293.434L294.424 973.853ZM0 713.209H187.034V1024H0V713.209ZM49.5456 974.472H138.728L138.108 763.357L49.2978 762.985L49.5456 974.472Z" fill="#F73029"/>
</svg>
