<svg width="1191" height="1536" viewBox="0 0 1191 1536" fill="none" xmlns="http://www.w3.org/2000/svg">
<path fill-rule="evenodd" clip-rule="evenodd" d="M846.952 0.358866L847.775 52.2053H873.29C898.312 52.2053 898.806 52.2053 899.793 55.9909C900.287 57.966 900.452 68.0061 899.629 96.645L920.206 96.8096C931.565 96.9742 941.771 96.9742 942.758 96.8096C943.911 96.8096 945.228 98.291 945.886 100.431C946.38 102.406 946.545 113.104 945.722 144.377L995.106 145.2L995.93 198.692H1043.67V248.069H1093.05V297.447H1144.08V347.647L1167.13 347.318C1186.72 346.825 1190.18 347.154 1190.18 349.293C1190.18 350.61 1190.18 361.473 1190.18 373.159C1190.18 384.845 1190.18 395.708 1190.18 397.025C1190.18 399.165 1186.56 399.494 1144.08 399.494V448.871H1093.05L1093.22 469.939C1093.22 481.461 1093.22 492.488 1093.22 494.628C1093.05 498.249 1092.89 498.249 1043.67 498.249V544.335H995.93L995.106 597.827L946.545 598.65L945.722 645.559L899.629 647.205V693.29L847.775 694.113V746.783H745.713V544.335H345.695V598.65H297.133L297.627 645.065C297.791 670.741 297.462 692.303 296.803 692.961C295.98 693.619 284.786 694.442 247.748 694.936L247.419 717.156C247.254 729.336 247.089 741.022 247.089 743.162C246.925 746.783 246.76 746.783 199.186 746.783V792.868H148.155V843.892H102.062V893.269H0V443.934H23.8694C41.9772 443.934 47.7388 443.44 47.5742 441.794C47.4095 440.806 47.4095 418.916 47.7388 346.825L96.3006 346.002L97.1237 297.447H146.509V248.069H245.279V225.027C245.279 207.744 245.772 201.984 247.419 201.819C248.406 201.819 359.687 201.49 494.672 201.161C629.658 200.996 741.103 200.667 742.42 200.502C744.56 200.338 744.889 188.158 744.889 101.089C744.889 46.6092 745.054 1.51101 745.383 0.68805C745.713 0.0296824 768.594 -0.299501 846.952 0.358866V0.358866ZM846.952 299.916L297.133 300.739V347.647L199.186 348.47V399.494H148.155V448.871H102.062V694.113H146.509V643.09H197.54L198.363 543.841C236.06 543.512 245.443 542.853 245.608 541.866C245.608 541.043 245.937 535.118 246.102 528.698C246.266 522.279 246.595 512.239 246.76 505.985L246.925 494.957H296.31V443.934L846.952 444.757L847.775 596.181H895.514C895.514 548.614 896.007 544.17 897.983 543.512C899.3 543.018 910.494 542.689 922.675 542.689H944.898C944.405 533.142 944.405 522.444 944.569 512.568L944.898 494.957C985.559 494.299 991.979 493.64 992.308 491.994C992.473 491.007 992.637 479.65 992.637 466.977V443.934H1042.02V396.202H1093.05V348.47H1042.02L1041.2 300.245L993.46 299.916L992.637 249.715L945.063 250.538C943.911 244.119 943.581 233.256 943.746 222.229L944.075 201.984L896.337 201.161L895.678 144.377H847.775L846.952 299.916ZM1093.05 643.09L1191 643.913V1093.25H1144.91L1143.26 1190.36L1119.06 1190.69C1100.95 1191.02 1094.7 1191.67 1094.53 1193.16C1094.53 1194.31 1094.37 1205.01 1093.88 1238.09L1043.67 1238.91V1288.29H946.545L946.38 1298.49C946.215 1304.25 946.051 1314.46 946.051 1321.54C945.886 1328.45 945.228 1334.54 944.405 1335.2C943.746 1335.86 830.984 1336.35 444.464 1336.02V1535.18L347.505 1536L346.518 1483.33L296.31 1482.51V1434.78H245.279V1388.69H197.54V1336.02L174.164 1336.19C161.16 1336.35 149.801 1336.35 148.649 1336.19C147.002 1336.02 146.509 1330.1 146.509 1288.29H97.1237V1238.91H47.7388V1191.18L0.823082 1190.36L0 1140.16H47.7388L48.5619 1090.45L96.3006 1089.96L97.1237 1039.76H146.509V993.67H197.54V939.355H245.279L246.102 892.446L296.31 893.269V842.246L346.518 842.739L348.164 790.399L392.61 790.07C417.138 789.906 438.703 790.07 444.464 791.222V993.67H846.129L847.281 989.062C847.775 986.593 847.939 975.894 847.61 965.36C847.281 954.662 847.281 945.939 847.775 945.939C848.269 945.939 859.133 945.939 895.514 945.939V894.915C895.514 847.513 895.678 843.892 898.477 843.562C899.958 843.562 910.494 843.233 921.852 842.904C933.211 842.575 942.594 842.246 942.594 841.917C942.758 841.587 943.252 830.231 943.911 816.734C944.569 803.073 945.392 791.716 945.886 791.222C946.38 790.729 956.915 790.399 991.814 790.399L992.637 741.845H1042.02V727.361C1041.86 719.46 1041.86 708.762 1042.02 694.113H1093.05V643.09ZM1043.67 893.269H995.93V992.024H946.545L945.722 1040.58L899.629 1041.57C899.958 1063.79 899.629 1075.64 899.135 1082.22L897.983 1094.07H347.341C347.341 980.667 347.011 946.597 346.518 945.116C345.859 943.14 341.579 942.647 321.825 942.647C303.882 942.647 297.956 943.14 297.791 944.786C297.791 945.939 297.791 956.966 297.791 969.475L297.956 992.024H247.748V1040.58L199.186 1041.4L198.363 1093.25L148.155 1094.07V1141.8H102.062V1187.89H148.155V1238.91C184.535 1238.75 196.058 1238.75 197.046 1238.91C198.692 1238.91 199.186 1245 199.186 1263.6V1288.29L247.748 1289.11L248.571 1334.38L297.133 1335.2V1387.21L346.518 1386.22L348.164 1238.09L895.514 1238.91L896.337 1188.71L992.637 1187.89L993.46 1140.98L1041.2 1140.49L1042.02 1090.78H1093.05V843.892H1043.67V893.269Z" fill="#F73029"/>
</svg>
