<svg width="610" height="360" viewBox="0 0 610 360" fill="none" xmlns="http://www.w3.org/2000/svg">
<path fill-rule="evenodd" clip-rule="evenodd" d="M0.109375 0.942383H108.534V35.4364L74.0355 36.0523V170.948H35.8403V35.4364H0.109375V0.942383ZM123.32 0.942383H205.87V18.1894L223.736 18.8053L224.106 51.4514C224.352 69.4376 224.229 84.9599 223.859 85.9454C223.243 87.4237 221.272 87.7933 207.103 87.1773V103.192H223.12V170.948H187.389V103.192H159.051V170.948H123.32V0.942383ZM159.051 69.9303H187.389V35.4364H159.051V69.9303ZM272.404 0.942383H327.849V28.0448H343.866V103.192H359.883V170.948H325.384V137.686H277.332V170.948H239.137V103.192H256.387V28.0448H272.404V0.942383ZM290.885 102.576H308.135V51.4514H290.885V102.576ZM389.454 0.942383H465.844V18.1894L481.245 18.8053L481.861 56.3791H443.666V35.4364H409.167V136.454H443.666V117.976H481.861L481.615 136.208C481.368 149.513 480.876 154.441 479.767 154.687C478.904 154.81 475.331 154.933 465.228 154.933L465.844 170.948H389.454V154.933L372.82 154.317V18.8053L389.454 18.1894V0.942383ZM497.879 0.942383H534.842V63.7707H554.555V28.6608L570.573 30.5086V0.942383H610V17.5734C610 33.8349 610 34.2044 607.289 34.8204C605.688 35.19 602.114 35.3132 593.736 34.8204L593.983 68.6984H574.269V95.8008L593.366 96.4168L593.983 136.454H599.281C602.114 136.454 605.688 136.824 607.289 137.07C610 137.686 610 138.056 610 170.948L571.189 170.332L570.573 138.918H554.555V100.729H534.842V170.948H497.879V0.942383ZM35.8403 189.427H134.409V223.921H72.8034V255.951L114.079 256.567L114.695 291.677H72.8034V359.433H35.8403V189.427ZM149.194 189.427H187.389V323.707L244.682 324.323L245.298 359.433H149.194V189.427ZM279.797 189.427H367.276L366.66 206.551L383.909 207.29L384.525 342.186H367.276L366.66 358.817L279.797 359.433V342.186L261.931 341.57L261.685 278.496C261.438 243.755 261.808 213.573 262.301 211.356C263.286 207.29 263.41 207.29 279.797 206.674V189.427ZM299.51 323.707H346.33V223.921H299.51V323.707ZM401.775 189.427H438.738L439.354 289.829L453.523 289.213V323.707H469.54V230.081H507.735V323.707H523.753L524.369 289.829L540.386 289.583L541.002 189.427H576.733V321.244H560.716V359.433H495.414V326.171H481.861V359.433H417.792V321.244L402.391 320.628L401.775 189.427Z" fill="#F73029"/>
</svg>
